<svg width="328" height="779" viewBox="0 0 328 779" fill="none" xmlns="http://www.w3.org/2000/svg">
<g clip-path="url(#clip0)">
<path d="M0 397.501C2.6061 389.496 2.17175 381.492 3.4748 373.487C6.9496 350.362 12.5962 327.682 19.9801 305.447C20.8488 302.779 22.1519 301.89 25.1923 302.334C30.4045 302.779 35.1824 302.334 39.0915 297.887C43.8694 292.551 51.6877 292.551 57.3342 296.998C63.4151 301.445 65.1525 309.45 61.6777 316.12C53.8594 332.574 63.8495 349.028 81.2235 349.028C85.1326 349.028 86.87 347.694 89.0418 344.137C93.8196 334.798 104.244 330.795 113.8 333.908C122.921 336.577 129.871 345.471 129.002 355.699C128.133 366.372 133.78 372.598 141.598 377.489C152.023 384.16 162.447 383.271 173.74 377.045C171.134 389.052 168.962 400.614 168.528 412.621C165.487 490.889 215.003 558.929 289.277 578.941C373.107 601.176 462.583 546.477 482.997 459.76C486.038 446.419 488.21 433.078 487.775 419.292C487.775 415.734 488.644 414.4 492.119 414.845C545.109 414.845 598.1 414.845 651.091 414.845C655 414.845 655.434 416.179 655.434 419.736C655.434 515.793 623.292 598.508 554.665 664.769C507.321 710.129 451.29 737.701 387.44 749.708C375.278 751.931 362.682 754.155 350.086 754.599C348.783 754.599 347.914 754.155 347.046 755.489C334.015 755.489 320.55 755.489 307.52 755.489C306.217 754.155 304.479 754.599 303.176 754.599C284.065 753.71 265.388 750.597 246.711 745.26C165.922 723.915 102.507 677.221 55.5968 606.513C27.3641 564.266 10.4244 517.572 3.4748 466.875C2.17175 458.87 2.6061 450.421 0 442.416C0 427.741 0 412.621 0 397.501ZM102.072 422.849C102.072 435.301 111.194 445.085 123.355 445.529C135.517 445.529 145.507 436.19 145.507 424.183C145.507 411.732 135.952 401.504 123.79 401.059C111.628 401.059 102.072 410.398 102.072 422.849ZM36.4854 410.398C43.8694 410.398 49.9503 404.172 49.9503 397.056C49.9503 389.941 44.3037 384.16 36.9198 384.16C29.5358 384.16 23.4549 389.941 23.4549 397.501C23.4549 404.616 29.1015 410.398 36.4854 410.398ZM62.1121 434.412C57.7686 434.412 53.4251 438.859 53.4251 443.306C53.4251 447.753 57.3342 452.2 62.1121 452.2C66.4556 452.2 70.7991 448.198 70.7991 443.75C70.7991 438.859 66.4556 434.412 62.1121 434.412Z" fill="white"/>
<path d="M160.71 296.109C177.649 296.109 191.114 309.45 191.114 326.794C191.114 344.137 177.215 358.368 160.275 357.923C143.77 357.478 130.305 343.692 130.305 326.794C130.305 309.45 143.77 296.109 160.71 296.109Z" fill="white"/>
<path d="M70.3645 224.956C87.3041 224.956 100.769 238.742 100.769 255.641C100.769 272.539 86.8698 287.215 70.3645 286.77C53.8592 286.77 40.3943 272.539 39.96 255.641C39.96 238.742 53.4248 224.956 70.3645 224.956Z" fill="white"/>
<path d="M178.083 270.76C178.083 282.767 168.528 292.551 156.8 292.551C145.073 292.551 135.083 282.322 135.083 270.315C135.083 257.864 144.638 248.525 156.8 248.525C168.962 248.525 178.083 257.864 178.083 270.76Z" fill="white"/>
<path d="M203.71 132.635C203.71 120.184 213.266 109.955 224.993 110.4C236.721 110.4 246.711 120.628 246.711 132.635C246.711 144.643 236.721 154.871 224.559 154.871C212.832 154.426 203.71 144.643 203.71 132.635Z" fill="white"/>
<path d="M207.185 92.1666C198.932 92.1666 192.417 85.9407 191.983 77.4913C191.983 68.5972 198.498 61.4819 207.185 61.4819C215.003 61.4819 221.953 68.5972 221.953 76.6019C222.387 85.496 215.438 92.1666 207.185 92.1666Z" fill="white"/>
<path d="M169.397 48.1411C176.781 48.1411 182.427 53.9223 182.427 61.4823C182.427 69.0423 176.781 74.3787 169.397 74.3787C162.013 74.3787 155.932 68.1528 156.366 61.0376C156.366 53.4776 162.013 48.1411 169.397 48.1411Z" fill="white"/>
<path d="M142.032 227.623C135.083 227.623 129.002 221.842 129.002 214.727C129.002 207.167 135.083 201.386 142.467 201.386C149.416 201.386 155.497 207.612 155.497 214.727C155.497 221.842 149.851 227.623 142.032 227.623Z" fill="white"/>
<path d="M121.618 167.588C128.568 167.588 134.648 173.369 134.648 180.484C134.648 187.6 128.568 194.27 121.618 194.27C114.668 194.27 108.153 187.6 108.587 180.484C108.587 173.369 114.668 167.588 121.618 167.588Z" fill="white"/>
<path d="M245.408 40.1373C245.408 47.6973 240.195 53.4784 232.811 53.4784C225.428 53.4784 219.781 47.6973 219.781 40.1373C219.781 33.022 225.862 27.2408 232.811 27.2408C239.761 26.7961 245.408 32.5773 245.408 40.1373Z" fill="white"/>
<path d="M326.631 99.9549C319.681 99.9549 313.601 94.1737 313.601 87.0584C313.601 79.4985 318.813 73.7173 326.197 73.7173C333.581 73.7173 339.662 79.4985 339.662 86.6137C339.662 93.729 334.015 99.9549 326.631 99.9549Z" fill="white"/>
<path d="M185.902 34.7999C181.124 34.7999 177.649 30.7975 178.084 25.9058C178.084 21.4587 181.993 17.4564 186.336 17.9011C190.68 17.9011 194.589 22.3481 194.589 26.7952C194.154 30.7975 190.245 34.7999 185.902 34.7999Z" fill="white"/>
<path d="M230.64 275.902C226.296 275.902 222.387 271.9 222.387 267.897C222.387 263.45 226.731 259.003 231.074 259.448C235.418 259.448 239.327 263.45 239.327 267.897C239.327 271.9 235.418 275.902 230.64 275.902Z" fill="white"/>
<path d="M281.459 122.636C281.459 127.528 277.984 130.641 273.641 131.085C268.863 131.085 265.388 127.528 265.388 122.636C265.388 117.744 268.863 114.187 274.075 114.631C278.418 114.187 281.459 117.744 281.459 122.636Z" fill="white"/>
<path d="M276.681 60.8213C276.681 65.7131 273.206 69.2707 267.994 68.826C263.216 68.826 260.176 65.2684 260.176 60.3766C260.176 55.4849 263.651 51.9272 267.994 51.9272C272.772 52.372 277.115 56.3743 276.681 60.8213Z" fill="white"/>
</g>
<defs>
<clipPath id="clip0">
<rect width="655" height="779" fill="white"/>
</clipPath>
</defs>
</svg>
