<svg width="348" height="659" viewBox="0 0 348 659" fill="none" xmlns="http://www.w3.org/2000/svg">
<path d="M348 300.084C345.394 292.08 345.828 284.075 344.525 276.07C341.05 252.946 335.404 230.266 328.02 208.03C327.151 205.362 325.848 204.473 322.808 204.918C317.595 205.362 312.818 204.918 308.909 200.47C304.131 195.134 296.312 195.134 290.666 199.581C284.585 204.028 282.847 212.033 286.322 218.703C294.141 235.157 284.151 251.612 266.777 251.612C262.867 251.612 261.13 250.277 258.958 246.72C254.18 237.381 243.756 233.379 234.2 236.492C225.079 239.16 218.129 248.054 218.998 258.282C219.867 268.955 214.22 275.181 206.402 280.073C195.977 286.743 185.553 285.854 174.26 279.628C176.866 291.635 179.038 303.197 179.472 315.204C182.513 393.472 132.997 461.512 58.7228 481.524C-25.1067 503.759 -114.583 449.061 -134.997 362.343C-138.038 349.002 -140.21 335.661 -139.775 321.875C-139.775 318.317 -140.644 316.983 -144.119 317.428C-197.109 317.428 -250.1 317.428 -303.091 317.428C-307 317.428 -307.434 318.762 -307.434 322.32C-307.434 418.376 -275.292 501.091 -206.665 567.352C-159.321 612.712 -103.29 640.284 -39.4403 652.291C-27.2785 654.514 -14.6823 656.738 -2.08618 657.183C-0.783142 657.183 0.0855408 656.738 0.954254 658.072C13.9848 658.072 27.4496 658.072 40.4801 658.072C41.7832 656.738 43.5206 657.183 44.8236 657.183C63.935 656.293 82.6121 653.18 101.289 647.844C182.078 626.498 245.493 579.804 292.403 509.096C320.636 466.849 337.576 420.155 344.525 369.458C345.828 361.454 345.394 353.004 348 345C348 330.324 348 315.204 348 300.084ZM245.928 325.433C245.928 337.884 236.806 347.668 224.645 348.113C212.483 348.113 202.493 338.774 202.493 326.767C202.493 314.315 212.048 304.087 224.21 303.642C236.372 303.642 245.928 312.981 245.928 325.433ZM311.515 312.981C304.131 312.981 298.05 306.755 298.05 299.64C298.05 292.524 303.696 286.743 311.08 286.743C318.464 286.743 324.545 292.524 324.545 300.084C324.545 307.2 318.899 312.981 311.515 312.981ZM285.888 336.995C290.231 336.995 294.575 341.442 294.575 345.889C294.575 350.336 290.666 354.783 285.888 354.783C281.544 354.783 277.201 350.781 277.201 346.334C277.201 341.442 281.544 336.995 285.888 336.995Z" fill="white"/>
<path d="M-69.8449 139.04C-68.9762 107.91 -95.4716 79.4492 -127.613 79.4492C-161.058 79.4492 -187.119 106.132 -187.119 139.484C-187.119 171.503 -160.624 198.63 -129.351 199.075C-95.4716 199.964 -68.5419 170.614 -69.8449 139.04Z" fill="white"/>
<path d="M187.29 183.692C170.351 183.692 156.886 197.033 156.886 214.377C156.886 231.72 170.785 245.951 187.725 245.506C204.23 245.061 217.695 231.276 217.695 214.377C217.695 197.033 204.23 183.692 187.29 183.692Z" fill="white"/>
<path d="M277.635 112.539C260.696 112.539 247.231 126.325 247.231 143.224C247.231 160.123 261.13 174.798 277.635 174.353C294.141 174.353 307.606 160.123 308.04 143.224C308.04 126.325 294.575 112.539 277.635 112.539Z" fill="white"/>
<path d="M169.917 158.343C169.917 170.35 179.472 180.134 191.2 180.134C202.927 180.134 212.917 169.906 212.917 157.899C212.917 145.447 203.362 136.108 191.2 136.108C179.038 136.108 169.917 145.447 169.917 158.343Z" fill="white"/>
<path d="M144.29 135.219C144.29 122.767 134.734 112.539 123.007 112.983C111.279 112.983 101.289 123.212 101.289 135.219C101.289 147.226 111.279 157.454 123.441 157.454C135.168 157.009 144.29 147.226 144.29 135.219Z" fill="white"/>
<path d="M140.815 94.7498C149.068 94.7498 155.583 88.524 156.017 80.0746C156.017 71.1805 149.502 64.0652 140.815 64.0652C132.997 64.0652 126.047 71.1805 126.047 79.1852C125.613 88.0793 132.562 94.7498 140.815 94.7498Z" fill="white"/>
<path d="M178.603 50.7241C171.219 50.7241 165.573 56.5053 165.573 64.0653C165.573 71.6253 171.219 76.9617 178.603 76.9617C185.987 76.9617 192.068 70.7358 191.634 63.6206C191.634 56.0606 185.987 50.7241 178.603 50.7241Z" fill="white"/>
<path d="M205.968 115.207C212.917 115.207 218.998 109.425 218.998 102.31C218.998 94.7502 212.917 88.969 205.533 88.969C198.584 88.969 192.503 95.1949 192.503 102.31C192.503 109.425 198.149 115.207 205.968 115.207Z" fill="white"/>
<path d="M226.382 55.1711C219.432 55.1711 213.352 60.9523 213.352 68.0676C213.352 75.1829 219.432 81.8534 226.382 81.8534C233.332 81.8534 239.847 75.1829 239.413 68.0676C239.413 60.9523 233.332 55.1711 226.382 55.1711Z" fill="white"/>
<path d="M102.592 42.7205C102.592 50.2805 107.804 56.0617 115.188 56.0617C122.572 56.0617 128.219 50.2805 128.219 42.7205C128.219 35.6052 122.138 29.8241 115.188 29.8241C108.239 29.3794 102.592 35.1605 102.592 42.7205Z" fill="white"/>
<path d="M21.3689 112.538C28.3185 112.538 34.3994 106.757 34.3994 99.6417C34.3994 92.0817 29.1872 86.3005 21.8033 86.3005C14.4193 86.3005 8.33841 92.0817 8.33841 99.197C8.33841 106.312 13.985 112.538 21.3689 112.538Z" fill="white"/>
<path d="M162.098 37.3831C166.876 37.3831 170.351 33.3808 169.916 28.489C169.916 24.042 166.007 20.0396 161.664 20.4843C157.32 20.4843 153.411 24.9314 153.411 29.3784C153.845 33.3808 157.755 37.3831 162.098 37.3831Z" fill="white"/>
<path d="M117.36 16.4849C121.704 16.4849 125.613 12.4825 125.613 8.48019C125.613 4.03314 121.269 -0.413908 116.926 0.0307966C112.582 0.0307966 108.673 4.03314 108.673 8.48019C108.673 12.4825 112.582 16.4849 117.36 16.4849Z" fill="white"/>
<path d="M66.5412 135.219C66.5412 140.111 70.016 143.224 74.3595 143.669C79.1374 143.669 82.6122 140.111 82.6122 135.219C82.6122 130.327 79.1374 126.77 73.9252 127.215C69.5817 126.77 66.5412 130.327 66.5412 135.219Z" fill="white"/>
<path d="M71.3189 73.4043C71.3189 78.2961 74.7937 81.8537 80.0059 81.409C84.7838 81.409 87.8242 77.8514 87.8242 72.9596C87.8242 68.0679 84.3494 64.5103 80.0059 64.5103C75.2281 64.955 70.8846 68.9573 71.3189 73.4043Z" fill="white"/>
</svg>
