<svg width="35" height="36" viewBox="0 0 35 36" fill="none" xmlns="http://www.w3.org/2000/svg">
<path d="M17.5001 6.32812C11.2432 6.32812 6.15247 11.5643 6.15247 18C6.15247 24.4357 11.2432 29.6719 17.5001 29.6719C23.7571 29.6719 28.8478 24.4357 28.8478 18C28.8478 11.5643 23.7571 6.32812 17.5001 6.32812ZM20.5763 19.0547H16.4747V21.1634L18.5255 21.1641V23.2734H16.4747V25.3828H14.424V23.2734H12.3732V21.1634H14.424V19.0547H12.3732V16.9446H14.424V10.6165H20.5763C22.8376 10.6165 24.6779 12.51 24.6779 14.8359C24.6779 17.1619 22.8376 19.0547 20.5763 19.0547ZM20.5763 12.7266H16.4747V16.9453H20.5763C21.707 16.9453 22.6271 15.9989 22.6271 14.8359C22.6271 13.673 21.707 12.7266 20.5763 12.7266ZM17.5001 6.32812C11.2432 6.32812 6.15247 11.5643 6.15247 18C6.15247 24.4357 11.2432 29.6719 17.5001 29.6719C23.7571 29.6719 28.8478 24.4357 28.8478 18C28.8478 11.5643 23.7571 6.32812 17.5001 6.32812ZM20.5763 19.0547H16.4747V21.1634L18.5255 21.1641V23.2734H16.4747V25.3828H14.424V23.2734H12.3732V21.1634H14.424V19.0547H12.3732V16.9446H14.424V10.6165H20.5763C22.8376 10.6165 24.6779 12.51 24.6779 14.8359C24.6779 17.1619 22.8376 19.0547 20.5763 19.0547ZM20.5763 12.7266H16.4747V16.9453H20.5763C21.707 16.9453 22.6271 15.9989 22.6271 14.8359C22.6271 13.673 21.707 12.7266 20.5763 12.7266ZM17.5001 0C7.82727 0 0.00012207 8.05219 0.00012207 18C0.00012207 27.9492 7.82864 36 17.5001 36C27.173 36 35.0001 27.9478 35.0001 18C35.0001 8.05078 27.1716 0 17.5001 0ZM17.5001 31.7812C10.1125 31.7812 4.10168 25.5987 4.10168 18C4.10168 10.4013 10.1125 4.21875 17.5001 4.21875C24.8877 4.21875 30.8986 10.4013 30.8986 18C30.8986 25.5987 24.8877 31.7812 17.5001 31.7812ZM17.5001 6.32812C11.2432 6.32812 6.15247 11.5643 6.15247 18C6.15247 24.4357 11.2432 29.6719 17.5001 29.6719C23.7571 29.6719 28.8478 24.4357 28.8478 18C28.8478 11.5643 23.7571 6.32812 17.5001 6.32812ZM20.5763 19.0547H16.4747V21.1634L18.5255 21.1641V23.2734H16.4747V25.3828H14.424V23.2734H12.3732V21.1634H14.424V19.0547H12.3732V16.9446H14.424V10.6165H20.5763C22.8376 10.6165 24.6779 12.51 24.6779 14.8359C24.6779 17.1619 22.8376 19.0547 20.5763 19.0547ZM20.5763 12.7266H16.4747V16.9453H20.5763C21.707 16.9453 22.6271 15.9989 22.6271 14.8359C22.6271 13.673 21.707 12.7266 20.5763 12.7266Z" fill="#82DBE8"/>
</svg>
