<svg width="131" height="137" viewBox="0 0 131 137" fill="none" xmlns="http://www.w3.org/2000/svg">
<path d="M20.588 93.9828L14.9803 80.8974C13.2352 76.9453 8.61673 75.1562 4.66466 76.9012C0.712579 78.6463 -1.07655 83.2648 0.668522 87.2168C10.9977 109.94 11.5009 112.402 16.0819 116.978L34.4419 135.338C34.8668 135.763 35.4433 136.002 36.0444 136.002H60.6173C61.8692 136.002 62.884 134.987 62.884 133.736C63.1889 129.14 62.937 124.524 62.1337 119.988C64.1405 120.179 66.1608 120.179 68.1676 119.988C67.1907 124.136 67.4173 126.684 67.4173 133.733C67.4173 134.985 68.4321 136 69.684 136H94.266C94.8671 136 95.4435 135.761 95.8685 135.336L114.229 116.976C118.803 112.399 119.168 110.242 129.642 87.2146C130.771 84.658 130.45 81.6934 128.8 79.4375C127.151 77.1816 124.423 75.9772 121.644 76.2778C118.866 76.5785 116.459 78.3385 115.33 80.8951L109.713 93.9828C107.082 92.1625 103.812 91.5195 100.687 92.208C101.736 89.6356 102.626 87.0014 103.353 84.32C107.852 83.4134 118.753 79.4626 118.753 62.3334C118.753 56.5284 117.742 49.3748 111.969 48.586C120.129 35.9562 123.39 20.7785 121.137 5.91149L120.231 1.77483C119.999 0.733804 119.073 -0.00511968 118.007 2.67148e-05H12.2943C11.2321 0.000209 10.3125 0.737959 10.082 1.77483L9.12999 6.08149C6.91771 20.9058 10.1925 36.0278 18.3395 48.6087C12.6229 49.461 11.6324 56.5942 11.6324 62.3424C11.6324 79.4784 22.5419 83.4224 27.0457 84.3291C27.7764 87.0179 28.6704 89.6597 29.7227 92.2398C26.5682 91.5073 23.2511 92.1402 20.588 93.9828ZM58.3507 131.467H36.9737L19.2937 113.773C15.5923 110.081 15.5968 109.102 4.79612 85.34C4.32158 84.265 4.45659 83.0185 5.15031 82.07C5.84403 81.1216 6.99105 80.6152 8.15931 80.7418C9.32757 80.8683 10.3396 81.6085 10.8141 82.6835C19.9964 104.113 16.4264 98.8924 34.4328 116.91C35.0019 117.499 35.8446 117.736 36.6371 117.528C37.4296 117.321 38.0485 116.702 38.256 115.909C38.4634 115.117 38.2271 114.274 37.6379 113.705C25.2211 101.291 24.634 100.946 22.7413 98.047C25.2795 95.9397 28.9573 95.934 31.502 98.0334C36.223 102.362 41.6771 105.816 47.6089 108.233C52.9107 109.995 58.3507 116.865 58.3507 126.48V131.467ZM60.5199 115.203C58.4143 110.023 54.2611 105.942 49.0437 103.929C44.5895 102.127 40.4561 99.6164 36.8037 96.4943C29.0155 82.6948 28.0136 66.0643 28.0023 50.218C32.8053 41.7543 45.4035 22.2315 65.1507 10.3202C84.9409 22.3199 97.564 41.8722 102.383 50.3586C102.347 66.4519 101.386 82.3186 93.6971 96.3424C89.9904 99.5293 85.7897 102.092 81.2599 103.929C76.0382 105.946 71.8825 110.032 69.7769 115.219C66.7085 115.687 63.5866 115.682 60.5199 115.203ZM107.56 98.0356C105.676 100.923 105.13 101.227 92.6635 113.694C91.8045 114.583 91.8167 115.997 92.6911 116.871C93.5654 117.746 94.9791 117.758 95.8685 116.899C113.703 99.067 110.3 104.124 119.487 82.6835C119.962 81.6085 120.974 80.8683 122.142 80.7418C123.31 80.6152 124.457 81.1216 125.151 82.07C125.845 83.0185 125.98 84.265 125.505 85.34C114.865 108.748 114.8 109.99 111.021 113.773L93.3276 131.467H71.9507V126.48C71.8733 121.559 73.4631 116.757 76.4613 112.855C81.7767 106.209 83.4721 110.935 98.7993 98.0334C101.341 95.9307 105.019 95.9316 107.56 98.0356ZM114.219 62.3334C114.219 73.746 108.687 77.8306 104.573 79.2948C106.104 71.2243 106.869 63.0271 106.857 54.8126C108.954 53.3234 110.813 52.7023 111.844 53.201C112.399 53.4684 114.219 54.9236 114.219 62.3334ZM116.194 4.53336C119.196 19.6833 115.835 35.4012 106.9 47.999C106.685 31.0692 102.213 19.4707 93.2233 12.5936C92.2287 11.8331 90.806 12.0229 90.0455 13.0175C89.285 14.0121 89.4747 15.4349 90.4693 16.1954C97.0223 21.207 100.778 29.4078 101.95 41.0154C92.8607 27.2114 78.8232 12.5075 64.176 4.53336H116.194ZM14.1121 4.53336H45.0272C39.9699 7.88316 35.4591 11.9925 31.6539 16.7167C30.8715 17.6944 31.0298 19.1212 32.0075 19.9036C32.9851 20.686 34.412 20.5277 35.1944 19.55C40.2609 13.2938 46.6431 8.23027 53.8876 4.71923C56.1902 5.62423 58.444 6.64864 60.64 7.78829C41.6136 20.0374 29.462 38.3362 23.7591 48.5067C14.5445 35.8389 11.0467 19.8951 14.1121 4.53336ZM16.1657 62.3334C16.1657 54.9146 17.9791 53.4594 18.5457 53.1919C19.5567 52.7046 21.4539 53.3347 23.5324 54.8035C23.521 63.0219 24.2868 71.2229 25.8195 79.2971C21.7055 77.8419 16.1657 73.7596 16.1657 62.3334Z" fill="#82DBE8"/>
<path d="M38.9638 49.2661C41.3274 48.078 44.0678 47.8838 46.5753 48.7266L55.3677 51.6574C56.137 51.9133 56.9844 51.7393 57.5907 51.201C58.197 50.6627 58.47 49.8419 58.307 49.0477C58.1439 48.2535 57.5696 47.6066 56.8003 47.3507L48.0078 44.4267C44.3605 43.2015 40.3749 43.4847 36.9374 45.2133C36.2065 45.5714 35.7237 46.2941 35.6726 47.1065C35.6216 47.9189 36.0101 48.6963 36.6904 49.1432C37.3708 49.5901 38.2386 49.6379 38.9638 49.2683V49.2661Z" fill="#82DBE8"/>
<path d="M74.2173 51.7729C74.7454 51.7729 74.2173 51.8976 83.7373 48.7266C86.2445 47.8814 88.9858 48.0757 91.3488 49.266C92.0741 49.6356 92.9418 49.5878 93.6222 49.1409C94.3025 48.694 94.691 47.9166 94.64 47.1042C94.5889 46.2918 94.1061 45.5691 93.3752 45.2109C89.9369 43.4825 85.9506 43.1994 82.3025 44.4244L73.5124 47.3552C72.4586 47.7052 71.8136 48.767 71.9886 49.8635C72.1635 50.9599 73.107 51.7682 74.2173 51.7729Z" fill="#82DBE8"/>
<path d="M55.9593 60.4724C55.5574 59.2894 54.2738 58.6547 53.0897 59.0535C53.0104 59.0784 45.2811 61.5989 39.3106 57.12C38.4129 56.4509 37.161 56.5375 36.364 57.324C35.5681 58.1474 34.5402 58.7088 33.4173 58.9333C32.1655 58.9333 31.1506 59.9482 31.1506 61.2C31.1506 62.4519 32.1655 63.4667 33.4173 63.4667C35.1099 63.3759 36.7361 62.778 38.0844 61.7508C38.4266 61.9548 38.7644 62.1361 39.1134 62.3107C38.8095 62.7719 38.4137 63.1655 37.9506 63.4667C36.6988 63.4667 35.684 64.4815 35.684 65.7333C35.684 68.5191 39.8705 69.5867 43.5561 63.8769C47.2081 64.623 50.989 64.4399 54.5517 63.3443C55.7314 62.9376 56.3606 61.654 55.9593 60.4724Z" fill="#82DBE8"/>
<path d="M90.9907 57.12C85.0497 61.574 77.3725 59.1079 77.2139 59.0535C76.029 58.6492 74.7407 59.2819 74.3363 60.4668C73.932 61.6516 74.5647 62.94 75.7496 63.3443C79.312 64.4416 83.0934 64.6248 86.7452 63.877C87.8967 65.6654 89.8709 68 92.3507 68C93.6133 68.0064 94.6461 66.9958 94.6672 65.7334C94.68 65.1366 94.4519 64.5599 94.0343 64.1334C93.6168 63.7069 93.045 63.4666 92.4481 63.4667C91.9459 63.1784 91.5175 62.7772 91.1969 62.2948C91.5369 62.1203 91.8769 61.9435 92.2169 61.7395C93.5639 62.7708 95.1902 63.3726 96.884 63.4667C98.1358 63.4667 99.1507 62.4519 99.1507 61.2C99.1507 59.9482 98.1358 58.9334 96.884 58.9334C95.7673 58.7082 94.7454 58.1494 93.9532 57.3308C93.1557 56.5333 91.8931 56.4434 90.9907 57.12Z" fill="#82DBE8"/>
<path d="M57.0926 78.9526C61.9692 82.2153 68.332 82.2153 73.2086 78.9526C73.8824 78.5031 74.2652 77.7284 74.2128 76.9202C74.1605 76.112 73.6809 75.3931 72.9548 75.0343C72.2287 74.6756 71.3664 74.7314 70.6926 75.1808C67.3381 77.4229 62.9631 77.4229 59.6086 75.1808C58.5671 74.4861 57.1595 74.7672 56.4648 75.8087C55.77 76.8502 56.0511 78.2578 57.0926 78.9526Z" fill="#82DBE8"/>
<path d="M78.7507 92.48C78.7438 91.7207 78.4235 90.9979 77.8655 90.4828C77.3075 89.9678 76.5615 89.7062 75.804 89.76C73.9249 89.76 68.3626 86.1333 65.1507 86.1333C61.8958 86.1333 56.4104 89.76 54.5087 89.76C53.7495 89.7036 53.0008 89.9639 52.4405 90.4792C51.8801 90.9945 51.558 91.7188 51.5507 92.48C51.5507 95.6783 57.954 99.7333 65.1507 99.7333C72.3474 99.7333 78.7507 95.676 78.7507 92.48ZM65.1507 90.6667C67.5901 91.3812 69.9607 92.3128 72.234 93.4501C67.7998 95.7825 62.5016 95.7825 58.0674 93.4501C60.3397 92.3105 62.7104 91.3789 65.1507 90.6667Z" fill="#82DBE8"/>
<path d="M67.4173 104.267H62.884C61.6321 104.267 60.6173 105.282 60.6173 106.533C60.6173 107.785 61.6321 108.8 62.884 108.8H67.4173C68.6692 108.8 69.684 107.785 69.684 106.533C69.684 105.282 68.6692 104.267 67.4173 104.267Z" fill="#82DBE8"/>
<path d="M26.6173 27.2001C27.8692 27.2001 28.884 26.1852 28.884 24.9334C28.884 23.6816 27.8692 22.6667 26.6173 22.6667C25.3655 22.6667 24.3507 23.6816 24.3507 24.9334C24.3507 26.1852 25.3655 27.2001 26.6173 27.2001Z" fill="#82DBE8"/>
</svg>
