<svg width="30" height="30" viewBox="0 0 30 30" fill="none" xmlns="http://www.w3.org/2000/svg">
<g clip-path="url(#clip0)">
<path d="M29.0223 21.8958L24.8588 17.7322C23.3718 16.2452 20.844 16.8401 20.2492 18.7731C19.8031 20.1114 18.3161 20.8549 16.9778 20.5575C14.0039 19.814 9.98901 15.9478 9.24552 12.8252C8.79943 11.4869 9.69161 9.99987 11.0299 9.55384C12.963 8.95905 13.5578 6.43118 12.0708 4.9442L7.90724 0.780664C6.71766 -0.260221 4.93328 -0.260221 3.8924 0.780664L1.06714 3.60592C-1.75812 6.57988 1.36454 14.4609 8.35333 21.4497C15.3421 28.4385 23.2231 31.7099 26.1971 28.7359L29.0223 25.9106C30.0633 24.721 30.0633 22.9366 29.0223 21.8958Z" fill="white"/>
</g>
<defs>
<clipPath id="clip0">
<rect width="29.8348" height="29.8348" fill="white"/>
</clipPath>
</defs>
</svg>
