<svg width="44" height="44" viewBox="0 0 44 44" fill="none" xmlns="http://www.w3.org/2000/svg">
<path d="M8.90928 14.7812C8.68235 14.7812 8.4618 14.8729 8.30167 15.033C8.14121 15.1928 8.0499 15.4147 8.0499 15.6406C8.0499 15.8665 8.14121 16.0884 8.30167 16.2479C8.4618 16.408 8.68336 16.5 8.90928 16.5C9.13553 16.5 9.35608 16.408 9.51688 16.2479C9.67667 16.0884 9.76865 15.8665 9.76865 15.6406C9.76865 15.4147 9.67667 15.1928 9.51688 15.033C9.35709 14.8732 9.13553 14.7812 8.90928 14.7812Z" fill="#82DBE8"/>
<path d="M5.56915 10.1745C4.24551 11.4982 2.56939 12.3569 0.722408 12.6573C0.25378 12.7339 -0.0641214 13.1753 0.012081 13.6436C0.0808982 14.0656 0.445461 14.3653 0.859371 14.3653C0.905025 14.3653 0.951687 14.3616 0.998348 14.3539C3.20352 13.9951 5.20425 12.9702 6.78436 11.3901C7.15933 11.0151 7.587 10.6979 8.05026 10.4478V12.2031C8.05026 12.6778 8.4353 13.0625 8.90963 13.0625C9.3843 13.0625 9.76901 12.6778 9.76901 12.2031V5.67657C9.76901 5.67557 9.76901 5.67456 9.76901 5.67355V0.859375C9.76901 0.38504 9.3843 0 8.90963 0C8.4353 0 8.05026 0.38504 8.05026 0.859375V4.96054C6.19152 5.4248 4.505 6.3775 3.13839 7.74377C2.45022 8.43195 1.58883 8.9234 0.646877 9.1651C0.186977 9.28293 -0.0899698 9.75122 0.0278586 10.2108C0.127559 10.5992 0.476681 10.857 0.859707 10.857C0.930538 10.857 1.00238 10.8483 1.07388 10.8298C2.31393 10.5119 3.44824 9.86502 4.35394 8.95932C5.39526 7.918 6.65847 7.16302 8.05059 6.7424V8.55884C7.12408 8.91736 6.27545 9.46823 5.56915 10.1745Z" fill="#82DBE8"/>
<path d="M35.0624 42.2809C34.8365 42.2809 34.6146 42.3729 34.4548 42.5327C34.295 42.6924 34.203 42.9143 34.203 43.1403C34.203 43.3662 34.295 43.5881 34.4548 43.7479C34.6146 43.9077 34.8365 43.9996 35.0624 43.9996C35.2883 43.9996 35.5102 43.9077 35.67 43.7479C35.8298 43.5881 35.9218 43.3662 35.9218 43.1403C35.9218 42.9143 35.8298 42.6924 35.67 42.5327C35.5102 42.3729 35.2883 42.2809 35.0624 42.2809Z" fill="#82DBE8"/>
<path d="M43.2791 37.5384C41.4318 37.238 39.756 36.3793 38.4324 35.0557C37.7184 34.3416 36.8603 33.7871 35.9224 33.4289V31.6145C37.3256 32.0334 38.5989 32.7914 39.6476 33.8401C40.5533 34.7458 41.6876 35.3927 42.9276 35.7109C42.9991 35.7294 43.071 35.7381 43.1418 35.7381C43.5248 35.7381 43.8739 35.48 43.9736 35.0919C44.0915 34.632 43.8142 34.1641 43.3546 34.0459C42.4127 33.8042 41.551 33.3131 40.8631 32.6249C39.4891 31.2513 37.7925 30.2962 35.9224 29.8346V26.6214C37.7341 26.1736 39.4499 25.2434 40.8628 23.8305C41.551 23.1423 42.4123 22.6512 43.3546 22.4095C43.8142 22.2913 44.0915 21.8233 43.9733 21.3634C43.8555 20.9036 43.3872 20.6266 42.9276 20.7444C41.6872 21.0627 40.5529 21.7095 39.6476 22.6152C36.1806 26.0819 30.5396 26.0819 27.0729 22.6152C26.3639 21.9063 25.5099 21.3534 24.5787 20.9949V19.1804C25.9758 19.6007 27.2458 20.3574 28.2881 21.3997C29.6866 22.7982 31.5232 23.4974 33.3601 23.4974C35.197 23.4974 37.0339 22.7979 38.4324 21.3997C39.756 20.0761 41.4318 19.2174 43.2791 18.9169C43.7474 18.8407 44.0653 18.3993 43.9891 17.9307C43.9129 17.4624 43.4721 17.1441 43.0028 17.2207C40.7977 17.5795 38.7969 18.6044 37.2168 20.1845C36.8251 20.5763 36.388 20.8952 35.9224 21.1426V10.4326C36.3967 10.6847 36.8341 11.007 37.2168 11.39C38.7973 12.9701 40.798 13.995 43.0028 14.3535C43.0495 14.3612 43.0961 14.3649 43.1418 14.3649C43.5557 14.3649 43.9206 14.0652 43.9891 13.6435C44.0653 13.1749 43.7474 12.7335 43.2788 12.6573C41.4318 12.3568 39.7557 11.4981 38.432 10.1745C37.718 9.46048 36.86 8.90591 35.9221 8.54773V6.73331C37.3253 7.15226 38.5985 7.91025 39.6472 8.95895C40.5529 9.86465 41.6872 10.5115 42.9273 10.8298C42.9991 10.8482 43.071 10.857 43.1415 10.857C43.5245 10.857 43.8736 10.5988 43.9733 10.2107C44.0911 9.75119 43.8142 9.2829 43.3546 9.16473C42.4123 8.92303 41.5506 8.43158 40.8628 7.74375C39.4891 6.37009 37.7925 5.41505 35.9224 4.95347V0.859372C35.9224 0.385039 35.5374 0 35.063 0C34.5884 0 34.2037 0.385039 34.2037 0.859372V21.7132C33.6343 21.8015 33.0539 21.7995 32.4849 21.7075V5.6967C32.4863 5.67018 32.4859 5.64366 32.4849 5.6168V0.859372C32.4849 0.385039 32.0999 0 31.6255 0C31.1509 0 30.7662 0.385039 30.7662 0.859372V4.96153C28.9085 5.42613 27.2229 6.37849 25.8573 7.74375C25.4743 8.12711 25.0436 8.44568 24.5787 8.69543V0.859372C24.5787 0.385039 24.194 0 23.7193 0C23.2447 0 22.86 0.385039 22.86 0.859372V9.27081C22.5783 9.31512 22.2913 9.33828 22.0006 9.33828C21.7099 9.33828 21.4229 9.31512 21.1412 9.27081V0.859372C21.1412 0.385039 20.7565 0 20.2818 0C19.8075 0 19.4225 0.385039 19.4225 0.859372V8.6951C18.9575 8.44568 18.5268 8.12677 18.1438 7.74375C16.7708 6.37077 15.0756 5.41606 13.2065 4.95414V0.859372C13.2065 0.385039 12.8218 0 12.3471 0C11.8728 0 11.4877 0.385039 11.4877 0.859372V21.7126C10.9184 21.8012 10.338 21.7998 9.76897 21.7082V19.0781C9.76897 18.6034 9.38427 18.2187 8.9096 18.2187C8.43527 18.2187 8.05023 18.6034 8.05023 19.0781V21.1265C7.5957 20.8814 7.16803 20.5679 6.78433 20.1842C5.20423 18.6041 3.20351 17.5792 0.998344 17.2203C0.530389 17.1445 0.088283 17.462 0.0120809 17.9307C-0.0641211 18.399 0.253779 18.8407 0.722405 18.9169C2.56938 19.2177 4.24549 20.0761 5.56913 21.3997C6.96762 22.7982 8.80419 23.4974 10.6411 23.4974C12.4777 23.4974 14.3149 22.7979 15.7131 21.3997C16.7577 20.355 18.0257 19.5987 19.4225 19.1788V20.9942C18.4909 21.3527 17.6383 21.9053 16.9283 22.6152C13.4616 26.0819 7.82061 26.0819 4.35392 22.6152C3.44823 21.7095 2.31392 21.0627 1.07387 20.7444C0.613977 20.6263 0.145686 20.9036 0.0278585 21.3634C-0.0899695 21.8233 0.186977 22.2913 0.646875 22.4095C1.58883 22.6512 2.45021 23.1423 3.13838 23.8305C4.54392 25.236 6.24924 26.1635 8.05023 26.614V29.8417C6.1915 30.3063 4.50465 31.2586 3.13838 32.6249C2.45021 33.3131 1.58883 33.8042 0.646875 34.0459C0.186977 34.1641 -0.0899695 34.632 0.0278585 35.0919C0.127559 35.48 0.476679 35.7381 0.859703 35.7381C0.930199 35.7381 1.00204 35.7294 1.07387 35.7109C2.31392 35.3927 3.44823 34.7458 4.35392 33.8405C5.39524 32.7991 6.65845 32.0442 8.05023 31.6235V33.44C7.12372 33.7985 6.27542 34.3494 5.56913 35.0557C4.24549 36.3793 2.56938 37.238 0.722405 37.5384C0.253779 37.6146 -0.0641211 38.0561 0.0120809 38.5247C0.0808979 38.9463 0.445459 39.2461 0.859368 39.2461C0.905022 39.2461 0.951683 39.2424 0.998344 39.235C3.20351 38.8762 5.20423 37.8513 6.78433 36.2712C7.1593 35.8959 7.58697 35.579 8.05023 35.3289V43.1401C8.05023 43.6148 8.43527 43.9995 8.9096 43.9995C9.38427 43.9995 9.76897 43.6148 9.76897 43.1401V30.5577C9.76897 30.5567 9.76897 30.5557 9.76897 30.5547V26.897C10.059 26.9208 10.3501 26.9333 10.6411 26.9333C10.9234 26.9333 11.2057 26.9215 11.4877 26.899V43.1401C11.4877 43.6148 11.8728 43.9995 12.3471 43.9995C12.8218 43.9995 13.2065 43.6148 13.2065 43.1401V35.3155C13.6794 35.5676 14.1158 35.8892 14.4979 36.2712C15.8776 37.6509 17.5728 38.6033 19.4225 39.0615V43.1401C19.4225 43.6148 19.8075 43.9995 20.2818 43.9995C20.7565 43.9995 21.1412 43.6148 21.1412 43.1401V39.3398C21.4255 39.3623 21.7122 39.3743 22.0006 39.3743C22.2889 39.3743 22.5756 39.3623 22.86 39.3398V43.1405C22.86 43.6148 23.2447 43.9998 23.7193 43.9998C24.194 43.9998 24.5787 43.6148 24.5787 43.1405V39.0615C26.4284 38.6029 28.1236 37.6509 29.5033 36.2712C29.8773 35.8972 30.3039 35.5807 30.7662 35.3309V43.1405C30.7662 43.6148 31.1509 43.9998 31.6255 43.9998C32.0999 43.9998 32.4849 43.6148 32.4849 43.1405V30.5779C32.4863 30.5513 32.4859 30.5248 32.4849 30.4976V26.8967C32.776 26.9205 33.068 26.9333 33.3601 26.9333C33.6417 26.9333 33.923 26.9215 34.2037 26.8993L34.204 39.7026C34.204 40.1773 34.5887 40.562 35.0634 40.562C35.538 40.562 35.9227 40.1773 35.9227 39.7026L35.9224 35.3138C36.3967 35.5662 36.8341 35.8882 37.2172 36.2712C38.7973 37.8513 40.798 38.8762 43.0032 39.235C43.0498 39.2424 43.0961 39.2461 43.1421 39.2461C43.5557 39.2461 43.9206 38.9467 43.9891 38.5247C44.0656 38.0564 43.7477 37.615 43.2791 37.5384ZM22.0006 34.2195C21.7099 34.2195 21.4232 34.1963 21.1412 34.152V14.4573C21.4272 14.4804 21.7139 14.4925 22.0006 14.4925C22.2873 14.4925 22.5739 14.4804 22.86 14.4573V34.152C22.5783 34.1963 22.2916 34.2195 22.0006 34.2195ZM29.5033 20.1842C28.137 18.8179 26.4425 17.8622 24.5787 17.3983V14.1766C26.3847 13.7275 28.0944 12.7986 29.5033 11.39C29.8773 11.0161 30.3039 10.6995 30.7662 10.4498V21.1248C30.3127 20.8797 29.8863 20.5672 29.5033 20.1842ZM16.9286 8.95895C18.2815 10.3121 20.0828 11.057 22.0006 11.057C23.9181 11.057 25.7201 10.3121 27.0729 8.95929C28.1132 7.91864 29.3754 7.16401 30.7662 6.74338V8.56049C29.841 8.91901 28.9934 9.4692 28.2881 10.1745C24.8211 13.6415 19.1804 13.6415 15.7134 10.1748C15.0001 9.46148 14.143 8.90726 13.2065 8.54907V6.73432C14.6086 7.15326 15.8806 7.91126 16.9286 8.95895ZM14.4982 20.1845C14.1071 20.5752 13.6711 20.8935 13.2068 21.1409V10.434C13.6798 10.6864 14.1162 11.008 14.4982 11.39C15.9071 12.7989 17.6168 13.7275 19.4228 14.1766V17.3979C17.5587 17.8612 15.8678 18.8149 14.4982 20.1845ZM18.1438 23.8305C18.5225 23.4518 18.9545 23.1325 19.4228 22.8814V33.5763C18.9579 33.3268 18.5272 33.0079 18.1438 32.6249C16.7712 31.2519 15.0756 30.2972 13.2068 29.8353V26.6204C15.0172 26.1722 16.7316 25.2427 18.1438 23.8305ZM28.2881 35.0557C24.8211 38.5227 19.1801 38.5227 15.7134 35.0557C15.0004 34.3423 14.143 33.7884 13.2068 33.4302V31.6155C14.6086 32.0344 15.8806 32.7924 16.9286 33.8401C18.2818 35.193 20.0831 35.9382 22.0009 35.9382C23.9187 35.9382 25.7201 35.193 27.0729 33.8401C28.1135 32.7998 29.3757 32.0452 30.7662 31.6242V33.4413C29.8413 33.7998 28.9934 34.3504 28.2881 35.0557ZM30.7662 29.8427C28.9085 30.3073 27.2229 31.2597 25.8577 32.6249C25.4743 33.0083 25.0436 33.3268 24.5787 33.5766V22.8818C25.047 23.1329 25.4794 23.4525 25.8577 23.8305C27.2622 25.2353 28.9662 26.1625 30.7662 26.613V29.8427Z" fill="#82DBE8"/>
<path d="M4.94998 12.1C4.06998 12.98 1.64998 13.2 0.549976 13.2V9.90005L8.24998 6.05005V8.8C8.24998 8.25 6.04998 11 4.94998 12.1Z" fill="#82DBE8"/>
<path d="M14.85 6.05005H12.1V9.90005L15.95 12.1L20.9 13.2L26.4 12.1L31.35 9.90005V6.05005L28.05 7.15005L25.3 9.90005H19.25L14.85 6.05005Z" fill="#82DBE8"/>
<path d="M38.5 11L35.2 8.8V4.95005L43.45 9.90005V13.2H40.7L38.5 11Z" fill="#82DBE8"/>
<path d="M43.45 22V18.1501H41.8L38.5 20.9001L35.2 22H31.35L28.05 19.8L24.2 18.1501V22H25.3L29.7 25.3H35.2L39.6 23.6501L43.45 22Z" fill="#82DBE8"/>
<path d="M20.35 18.1501V22L18.15 23.6501L13.2 26.4001L6.04998 25.3L0.549976 22V18.1501L6.04998 20.9001L10.45 22H13.2L15.95 19.8L20.35 18.1501Z" fill="#82DBE8"/>
<path d="M3.84998 32.4501L8.24998 31.3501V34.1001L5.49998 36.3L0.549976 38.5V35.75L3.84998 32.4501Z" fill="#82DBE8"/>
<path d="M12.1 30.25V34.1001H13.2L15.95 36.8501L21.45 38.5L26.95 36.8501L31.35 34.1001V31.3501L28.05 32.4501L25.3 34.6501H21.45L19.25 34.1001L14.85 31.3501L12.1 30.25Z" fill="#82DBE8"/>
<path d="M39.6 36.8501L36.85 34.6501L35.2 34.1001V30.25L43.45 34.6501V38.5H41.8L39.6 36.8501Z" fill="#82DBE8"/>
</svg>
