<svg width="24" height="34" viewBox="0 0 24 34" fill="none" xmlns="http://www.w3.org/2000/svg">
<path d="M11.68 33.872C12.7985 33.872 13.8145 33.282 14.398 32.2938C18.4865 25.3694 23.36 16.2434 23.36 12.0908C23.36 5.4239 18.1204 0 11.68 0C5.23958 0 0 5.4239 0 12.0908C0 16.2434 4.87362 25.3694 8.96204 32.2938C9.54554 33.282 10.5616 33.872 11.68 33.872ZM6.9853 11.2606C6.9853 8.58103 9.09137 6.40096 11.68 6.40096C14.2686 6.40096 16.3747 8.58103 16.3747 11.2606C16.3747 13.9403 14.2686 16.1204 11.68 16.1204C9.09137 16.1204 6.9853 13.9404 6.9853 11.2606Z" fill="white"/>
</svg>
