<svg width="128" height="128" viewBox="0 0 128 128" fill="none" xmlns="http://www.w3.org/2000/svg">
<path d="M63.75 0C28.5983 0 0 28.5983 0 63.75C0 98.9017 28.5983 127.5 63.75 127.5C98.9017 127.5 127.5 98.9017 127.5 63.75C127.5 28.5983 98.9017 0 63.75 0ZM63.75 123.25C30.9411 123.25 4.25 96.5589 4.25 63.75C4.25 30.9411 30.9411 4.25 63.75 4.25C96.5589 4.25 123.25 30.9411 123.25 63.75C123.25 96.5589 96.5589 123.25 63.75 123.25Z" fill="#82DBE8"/>
<path d="M28.3929 27.0316L25.4468 23.9684C24.158 25.2115 22.917 26.525 21.7613 27.876L24.9902 30.6404C26.0577 29.3909 27.2036 28.177 28.3929 27.0316Z" fill="#82DBE8"/>
<path d="M8.67427 59.3319L12.9118 59.6682C13.6415 50.5503 16.819 41.7985 22.1091 34.3363L18.6395 31.8793C12.9087 39.9671 9.46601 49.4512 8.67427 59.3319Z" fill="#82DBE8"/>
<path d="M93.5 21.9494C93.5002 19.683 92.6638 17.4964 91.1512 15.8087C89.6386 14.121 87.5563 13.051 85.3035 12.8039C83.0506 12.5567 80.7859 13.1499 78.9434 14.4696C77.1009 15.7892 75.8104 17.7426 75.3193 19.9551C74.9604 21.5701 74.6722 23.2007 74.3758 24.8293C70.9149 23.877 67.3403 23.4016 63.7508 23.4162V12.75H59.5V38.25C59.4952 40.5481 58.75 42.7836 57.375 44.625C56.7566 45.4489 56.0211 46.1781 55.1918 46.7893C52.5584 48.7318 51.056 51.9775 51.1764 55.4824L53.1229 104.202C53.143 104.743 53.053 105.283 52.8582 105.789C52.6635 106.295 52.3681 106.756 51.99 107.144C51.2162 107.906 50.1738 108.334 49.0878 108.334C48.0017 108.334 46.9593 107.906 46.1855 107.144C45.8069 106.755 45.5113 106.293 45.3165 105.786C45.1217 105.28 45.0319 104.738 45.0524 104.196L46.5736 55.4702C46.6939 51.9777 45.1924 48.7321 42.556 46.7896C41.7273 46.1775 40.9926 45.4475 40.375 44.6229C38.9997 42.7824 38.2545 40.5475 38.25 38.25V12.75H34V36.5213C30.0835 40.7787 27.131 45.8305 25.3437 51.3323C23.5565 56.8341 22.9764 62.6566 23.6432 68.4029C24.3099 74.1492 26.2077 79.6842 29.2073 84.6305C32.2069 89.5769 36.2377 93.8185 41.025 97.066L40.8066 104.056C40.7687 105.168 40.955 106.276 41.3544 107.315C41.7539 108.353 42.3584 109.3 43.1318 110.1C43.9052 110.9 44.8317 111.535 45.8561 111.969C46.8805 112.403 47.9817 112.626 49.0942 112.625C50.2067 112.625 51.3076 112.4 52.3314 111.964C53.3551 111.529 54.2807 110.892 55.0529 110.091C55.8251 109.29 56.4281 108.342 56.826 107.303C57.2239 106.264 57.4085 105.156 57.3689 104.044L57.3511 103.6C63.9791 104.69 70.7756 104.078 77.1019 101.82L76.9587 103.775C76.8827 104.883 77.0306 105.996 77.3935 107.046C77.7565 108.096 78.327 109.062 79.0712 109.887C79.8155 110.712 80.7181 111.379 81.7254 111.848C82.7327 112.317 83.8241 112.578 84.9345 112.617C86.0449 112.655 87.1517 112.469 88.1889 112.071C89.2261 111.672 90.1725 111.069 90.9717 110.298C91.7709 109.526 92.4067 108.601 92.841 107.578C93.2754 106.556 93.4995 105.456 93.5 104.345V90.9787C100.332 83.5569 104.125 73.8378 104.125 63.75C104.125 53.6622 100.332 43.943 93.5 36.5213V21.9494ZM41.1857 91.9179C33.9061 86.1176 29.1572 77.7222 27.9364 68.4947C26.7157 59.2673 29.118 49.9257 34.6388 42.432C35.52 45.5538 37.4193 48.2917 40.0347 50.2105C41.5414 51.3209 42.3988 53.2341 42.3279 55.3323L41.1857 91.9179ZM77.4456 97.1268C71.0516 99.8421 63.9877 100.567 57.1755 99.2067L55.4224 55.3254C55.352 53.2336 56.2089 51.3203 57.7134 50.21C58.8768 49.3534 59.9083 48.3308 60.775 47.175C62.701 44.5975 63.7443 41.4676 63.75 38.25V27.6611C67.1097 27.6467 70.4542 28.1138 73.6814 29.0482C72.7433 35.2941 72.2649 41.6004 72.25 47.9163V70.125C72.25 70.6886 72.4739 71.2291 72.8724 71.6276C73.2709 72.0261 73.8114 72.25 74.375 72.25H79.2683L77.4456 97.1268ZM89.25 104.345C89.2489 105.413 88.8239 106.438 88.0684 107.193C87.3128 107.949 86.2884 108.374 85.2199 108.375C84.6681 108.375 84.1221 108.262 83.6159 108.042C83.1096 107.823 82.6538 107.501 82.2767 107.099C81.8997 106.696 81.6095 106.22 81.424 105.7C81.2384 105.18 81.1617 104.628 81.1984 104.077L83.674 70.2806C83.6954 69.9893 83.6565 69.6966 83.5597 69.421C83.4629 69.1454 83.3103 68.8926 83.1115 68.6786C82.9127 68.4646 82.6718 68.2939 82.404 68.1771C82.1362 68.0603 81.8472 68 81.5551 68H76.5V47.9163C76.5012 38.8215 77.497 29.754 79.4697 20.8757C79.7337 19.6853 80.4279 18.6342 81.4192 17.9241C82.4105 17.214 83.6291 16.8949 84.8412 17.028C86.0533 17.161 87.1736 17.7369 87.9872 18.6451C88.8008 19.5534 89.2505 20.73 89.25 21.9494V104.345ZM99.875 63.75C99.8786 71.049 97.6545 78.1752 93.5 84.1765V43.3234C97.6545 49.3247 99.8786 56.451 99.875 63.75Z" fill="#82DBE8"/>
<path d="M42.5 12.75H46.75V36.125H42.5V12.75Z" fill="#82DBE8"/>
<path d="M51 12.75H55.25V36.125H51V12.75Z" fill="#82DBE8"/>
</svg>
