<svg width="36" height="36" viewBox="0 0 36 36" fill="none" xmlns="http://www.w3.org/2000/svg">
<path d="M35.2621 0.00460681C28.2346 -0.121393 20.2201 3.55211 15.1471 9.25061C10.2991 9.34211 5.57862 11.3296 2.10312 14.8051C1.90062 15.0046 1.82862 15.3031 1.91712 15.5731C2.00712 15.8446 2.24112 16.0411 2.52312 16.0816L8.30412 16.9096L7.59012 17.7091C7.32462 18.0061 7.33812 18.4576 7.62012 18.7396L17.2606 28.3801C17.4061 28.5256 17.5981 28.5991 17.7916 28.5991C17.9701 28.5991 18.1486 28.5361 18.2911 28.4086L19.0906 27.6946L19.9186 33.4756C19.9591 33.7576 20.1811 33.9646 20.4496 34.0546C20.5186 34.0771 20.5906 34.0876 20.6641 34.0876C20.8771 34.0876 21.0946 33.9946 21.2446 33.8461C24.6721 30.4186 26.6596 25.6981 26.7511 20.8501C32.4556 15.7666 36.1591 7.75511 35.9956 0.736607C35.9851 0.337607 35.6626 0.0151068 35.2621 0.00460681ZM28.3501 12.9526C27.6196 13.6831 26.6596 14.0491 25.6981 14.0491C24.7366 14.0491 23.7766 13.6831 23.0461 12.9526C21.5851 11.4901 21.5851 9.11111 23.0461 7.64861C24.5086 6.18611 26.8876 6.18611 28.3501 7.64861C29.8126 9.11111 29.8126 11.4916 28.3501 12.9526Z" fill="#82DBE8"/>
<path d="M4.08609 25.3576C2.48109 26.9626 0.277586 34.2136 0.0315861 35.0341C-0.0479139 35.2981 0.0255861 35.5846 0.219086 35.7796C0.363086 35.9236 0.553586 36.0001 0.750086 36.0001C0.822086 36.0001 0.894086 35.9896 0.966086 35.9686C1.78659 35.7226 9.03759 33.5191 10.6426 31.9141C12.4501 30.1066 12.4501 27.1651 10.6426 25.3576C8.83359 23.5501 5.89359 23.5516 4.08609 25.3576Z" fill="#82DBE8"/>
</svg>
