<svg width="40" height="40" viewBox="0 0 40 40" fill="none" xmlns="http://www.w3.org/2000/svg">
<g clip-path="url(#clip0)">
<path d="M39.542 37.3319L28.2567 26.0466C33.3984 19.7907 33.0486 10.5041 27.2059 4.66142C20.9903 -1.55413 10.877 -1.55413 4.66141 4.66142C-1.55414 10.877 -1.55414 20.9903 4.66141 27.2059C10.5025 33.047 19.788 33.4006 26.0466 28.2567L37.3319 39.542C37.9422 40.1524 38.9316 40.1524 39.542 39.542C40.1523 38.9316 40.1523 37.9422 39.542 37.3319ZM24.9958 24.9957C19.9989 29.9926 11.8684 29.9925 6.87156 24.9957C1.87469 19.9988 1.87469 11.8684 6.87156 6.87149C11.8683 1.87485 19.9988 1.87446 24.9958 6.87149C29.9927 11.8684 29.9927 19.9988 24.9958 24.9957Z" fill="#39ACBC"/>
<path d="M23.5857 14.3711H17.4966V8.28205C17.4966 7.41893 16.797 6.71924 15.9338 6.71924C15.0707 6.71924 14.371 7.41893 14.371 8.28205V14.3711H8.28195C7.41883 14.3711 6.71914 15.0708 6.71914 15.9339C6.71914 16.7971 7.41883 17.4967 8.28195 17.4967H14.371V23.5858C14.371 24.4489 15.0707 25.1486 15.9338 25.1486C16.797 25.1486 17.4966 24.4489 17.4966 23.5858V17.4967H23.5857C24.4488 17.4967 25.1485 16.7971 25.1485 15.9339C25.1485 15.0708 24.4488 14.3711 23.5857 14.3711Z" fill="#39ACBC"/>
</g>
<defs>
<clipPath id="clip0">
<rect width="40" height="40" fill="white"/>
</clipPath>
</defs>
</svg>
