<svg width="42" height="40" viewBox="0 0 42 40" fill="none" xmlns="http://www.w3.org/2000/svg">
<g clip-path="url(#clip0)">
<path d="M29.4556 24.678L26.6646 21.8869C25.6678 20.8901 23.9732 21.2889 23.5745 22.5847C23.2754 23.4819 22.2786 23.9803 21.3815 23.7809C19.3879 23.2825 16.6965 20.6908 16.1981 18.5975C15.899 17.7003 16.4971 16.7035 17.3943 16.4045C18.6901 16.0058 19.0888 14.3112 18.092 13.3144L15.301 10.5233C14.5035 9.82556 13.3073 9.82556 12.6096 10.5233L10.7156 12.4173C8.82171 14.4109 10.915 19.6939 15.6 24.3789C20.285 29.0639 25.5681 31.2569 27.5617 29.2633L29.4556 27.3694C30.1534 26.5719 30.1534 25.3757 29.4556 24.678Z" fill="#074040"/>
</g>
<circle r="19.5" transform="matrix(1 0 0 -1 20 20)" stroke="#074040"/>
<circle cx="36" cy="6" r="6" fill="#63CFCF"/>
<defs>
<clipPath id="clip0">
<rect width="20" height="20" fill="white" transform="translate(10 10)"/>
</clipPath>
</defs>
</svg>
