<svg width="405" height="629" viewBox="0 0 405 629" fill="none" xmlns="http://www.w3.org/2000/svg">
<path d="M0 278.764C2.6061 270.948 2.17175 263.133 3.4748 255.317C6.9496 232.738 12.5962 210.593 19.9801 188.882C20.8488 186.277 22.1519 185.409 25.1923 185.843C30.4045 186.277 35.1824 185.843 39.0915 181.501C43.8694 176.29 51.6877 176.29 57.3342 180.632C63.4151 184.975 65.1525 192.79 61.6777 199.304C53.8594 215.369 63.8495 231.435 81.2235 231.435C85.1326 231.435 86.87 230.132 89.0418 226.659C93.8196 217.54 104.244 213.633 113.8 216.672C122.921 219.277 129.871 227.961 129.002 237.948C128.133 248.369 133.78 254.448 141.598 259.225C152.023 265.738 162.447 264.869 173.74 258.79C171.134 270.514 168.962 281.804 168.528 293.527C165.487 369.948 215.003 436.383 289.277 455.922C373.107 477.633 462.583 424.225 482.997 339.554C486.038 326.527 488.21 313.501 487.775 300.04C487.775 296.567 488.644 295.264 492.119 295.698C545.109 295.698 598.1 295.698 651.091 295.698C655 295.698 655.434 297.001 655.434 300.475C655.434 394.264 623.292 475.027 554.665 539.725C507.321 584.014 451.29 610.935 387.44 622.659C375.278 624.83 362.682 627.001 350.086 627.435C348.783 627.435 347.914 627.001 347.046 628.304C334.015 628.304 320.55 628.304 307.52 628.304C306.217 627.001 304.479 627.435 303.176 627.435C284.065 626.567 265.388 623.527 246.711 618.317C165.922 597.475 102.507 551.883 55.5968 482.843C27.3641 441.593 10.4244 396.001 3.4748 346.501C2.17175 338.685 2.6061 330.435 0 322.619C0 308.29 0 293.527 0 278.764ZM102.072 303.514C102.072 315.672 111.194 325.225 123.355 325.659C135.517 325.659 145.507 316.54 145.507 304.817C145.507 292.659 135.952 282.672 123.79 282.238C111.628 282.238 102.072 291.356 102.072 303.514ZM36.4854 291.356C43.8694 291.356 49.9503 285.277 49.9503 278.33C49.9503 271.383 44.3037 265.738 36.9198 265.738C29.5358 265.738 23.4549 271.382 23.4549 278.764C23.4549 285.711 29.1015 291.356 36.4854 291.356ZM62.1121 314.804C57.7686 314.804 53.4251 319.146 53.4251 323.488C53.4251 327.83 57.3342 332.172 62.1121 332.172C66.4556 332.172 70.7991 328.264 70.7991 323.922C70.7991 319.146 66.4556 314.804 62.1121 314.804Z" fill="white"/>
<path d="M417.845 184.514C416.976 154.119 443.472 126.33 475.613 126.33C509.058 126.33 535.119 152.382 535.119 184.948C535.119 216.211 508.624 242.698 477.351 243.132C443.472 244.001 416.542 215.343 417.845 184.514Z" fill="white"/>
<path d="M160.71 179.764C177.649 179.764 191.114 192.791 191.114 209.725C191.114 226.659 177.215 240.554 160.275 240.12C143.77 239.685 130.305 226.225 130.305 209.725C130.305 192.791 143.77 179.764 160.71 179.764Z" fill="white"/>
<path d="M70.3645 110.291C87.3041 110.291 100.769 123.751 100.769 140.251C100.769 156.751 86.8698 171.08 70.3645 170.646C53.8592 170.646 40.3943 156.751 39.96 140.251C39.96 123.751 53.4248 110.291 70.3645 110.291Z" fill="white"/>
<path d="M178.083 155.014C178.083 166.737 168.528 176.29 156.8 176.29C145.073 176.29 135.083 166.303 135.083 154.58C135.083 142.422 144.638 133.303 156.8 133.303C168.962 133.303 178.083 142.422 178.083 155.014Z" fill="white"/>
<path d="M203.71 132.435C203.71 120.277 213.266 110.29 224.993 110.725C236.721 110.725 246.711 120.711 246.711 132.435C246.711 144.159 236.721 154.146 224.559 154.146C212.832 153.711 203.71 144.159 203.71 132.435Z" fill="white"/>
<path d="M207.185 92.9212C198.932 92.9212 192.417 86.8423 191.983 78.5923C191.983 69.9081 198.498 62.9607 207.185 62.9607C215.003 62.9607 221.953 69.9081 221.953 77.7238C222.387 86.4081 215.438 92.9212 207.185 92.9212Z" fill="white"/>
<path d="M169.397 49.9343C176.781 49.9343 182.427 55.5791 182.427 62.9606C182.427 70.3422 176.781 75.5527 169.397 75.5527C162.013 75.5527 155.932 69.4738 156.366 62.5264C156.366 55.1449 162.013 49.9343 169.397 49.9343Z" fill="white"/>
<path d="M142.032 112.895C135.083 112.895 129.002 107.25 129.002 100.303C129.002 92.9213 135.083 87.2766 142.467 87.2766C149.416 87.2766 155.497 93.3556 155.497 100.303C155.497 107.25 149.851 112.895 142.032 112.895Z" fill="white"/>
<path d="M121.618 54.2764C128.568 54.2764 134.648 59.9211 134.648 66.8685C134.648 73.8158 128.568 80.329 121.618 80.329C114.668 80.329 108.153 73.8158 108.587 66.8685C108.587 59.9211 114.668 54.2764 121.618 54.2764Z" fill="white"/>
<path d="M245.408 42.1195C245.408 49.5011 240.195 55.1458 232.811 55.1458C225.428 55.1458 219.781 49.5011 219.781 42.1195C219.781 35.1721 225.862 29.5274 232.811 29.5274C239.761 29.0932 245.408 34.7379 245.408 42.1195Z" fill="white"/>
<path d="M326.631 110.29C319.681 110.29 313.601 104.645 313.601 97.6975C313.601 90.3159 318.813 84.6711 326.197 84.6711C333.581 84.6711 339.662 90.3159 339.662 97.2632C339.662 104.211 334.015 110.29 326.631 110.29Z" fill="white"/>
<path d="M185.902 36.9081C181.124 36.9081 177.649 33.0002 178.084 28.2239C178.084 23.8818 181.993 19.9739 186.336 20.4081C190.68 20.4081 194.589 24.7502 194.589 29.0923C194.154 33.0002 190.245 36.9081 185.902 36.9081Z" fill="white"/>
<path d="M230.64 16.5006C226.296 16.5006 222.387 12.5928 222.387 8.68486C222.387 4.34275 226.731 0.000644475 231.074 0.434855C235.418 0.434855 239.327 4.34275 239.327 8.68486C239.327 12.5928 235.418 16.5006 230.64 16.5006Z" fill="white"/>
<path d="M281.459 132.435C281.459 137.212 277.984 140.251 273.641 140.685C268.863 140.685 265.388 137.212 265.388 132.435C265.388 127.659 268.863 124.185 274.075 124.62C278.418 124.185 281.459 127.659 281.459 132.435Z" fill="white"/>
<path d="M276.681 72.0792C276.681 76.8555 273.206 80.3292 267.994 79.895C263.216 79.895 260.176 76.4213 260.176 71.645C260.176 66.8687 263.651 63.395 267.994 63.395C272.772 63.8292 277.115 67.7371 276.681 72.0792Z" fill="white"/>
</svg>
