<svg width="156" height="157" viewBox="0 0 156 157" fill="none" xmlns="http://www.w3.org/2000/svg">
<g filter="url(#filter0_d)">
<path d="M56.0484 11.8299L66.9388 18.9447L75.1779 8.87811L83.6227 18.7729L94.3642 11.4353L99.6792 23.3084L112.053 19.2942L113.808 32.1838L126.811 31.8183L124.863 44.6801L137.443 47.9929L131.95 59.7849L143.087 66.5076L134.495 76.2746L143.286 85.8625L132.29 92.8131L138.025 104.49L125.516 108.061L127.728 120.88L114.72 120.782L113.231 133.705L100.778 129.947L95.7083 141.927L84.8179 134.812L76.5788 144.879L68.134 134.984L57.3925 142.321L52.0775 130.448L39.7039 134.462L37.9492 121.573L24.9459 121.938L26.8937 109.077L14.3141 105.764L19.8066 93.9718L8.66995 87.2491L17.2622 77.4821L8.47058 67.8942L19.4664 60.9436L13.7322 49.2672L26.2408 45.696L24.0285 32.877L37.0366 32.9746L38.5254 20.0516L50.9791 23.81L56.0484 11.8299Z" fill="white"/>
</g>
<path d="M82.6968 98.934C78.1269 100.327 75.5129 105.486 76.9643 110.247C78.4157 115.008 83.463 117.831 88.0329 116.438C92.4348 115.096 95.2168 109.886 93.6278 105.396C92.3033 100.329 87.3004 97.5306 82.6968 98.934Z" fill="#E4097F"/>
<path d="M61.884 38.1306C58.2482 40.5399 56.9142 45.0787 58.3123 49.6647C59.357 52.3689 60.3787 55.1183 61.4235 57.8224C65.207 68.1856 68.9265 78.3387 72.71 88.7019C74.0002 92.2112 77.4445 93.9925 80.8719 92.9477C84.2993 91.9028 86.1444 88.3177 85.2132 84.6607C84.5516 82.4902 83.9432 80.4948 83.4725 78.2278C81.7824 71.3587 80.126 64.4793 78.4359 57.6101C77.3035 53.1727 76.3391 48.6841 75.2067 44.2466C74.7265 42.6713 74.098 41.3324 73.0999 40.1063C70.1909 36.7078 65.5839 35.9314 61.884 38.1306Z" fill="#E4097F"/>
<defs>
<filter id="filter0_d" x="0.470581" y="0.878113" width="154.816" height="156.001" filterUnits="userSpaceOnUse" color-interpolation-filters="sRGB">
<feFlood flood-opacity="0" result="BackgroundImageFix"/>
<feColorMatrix in="SourceAlpha" type="matrix" values="0 0 0 0 0 0 0 0 0 0 0 0 0 0 0 0 0 0 127 0"/>
<feOffset dx="2" dy="2"/>
<feGaussianBlur stdDeviation="5"/>
<feColorMatrix type="matrix" values="0 0 0 0 0 0 0 0 0 0 0 0 0 0 0 0 0 0 0.28 0"/>
<feBlend mode="normal" in2="BackgroundImageFix" result="effect1_dropShadow"/>
<feBlend mode="normal" in="SourceGraphic" in2="effect1_dropShadow" result="shape"/>
</filter>
</defs>
</svg>
