<svg width="36" height="36" viewBox="0 0 36 36" fill="none" xmlns="http://www.w3.org/2000/svg">
<path d="M34.8751 36H28.8751C28.2541 36 27.7501 35.496 27.7501 34.875V33H23.2501V34.875C23.2501 35.496 22.7461 36 22.1251 36H13.8751C13.2541 36 12.7501 35.496 12.7501 34.875V33H8.25012V34.875C8.25012 35.496 7.74612 36 7.12512 36H1.12512C0.504122 36 0.00012207 35.496 0.00012207 34.875V30H36.0001V34.875C36.0001 35.496 35.4961 36 34.8751 36Z" fill="#82DBE8"/>
<path d="M24.0001 0H19.5001V3C19.5001 3.828 18.8281 4.5 18.0001 4.5C17.1721 4.5 16.5001 3.828 16.5001 3V0H12.0001C11.1721 0 10.5001 0.672 10.5001 1.5V10.5C10.5001 11.328 11.1721 12 12.0001 12H24.0001C24.8281 12 25.5001 11.328 25.5001 10.5V1.5C25.5001 0.672 24.8281 0 24.0001 0Z" fill="#82DBE8"/>
<path d="M15.0001 15H10.5001V18C10.5001 18.828 9.82813 19.5 9.00013 19.5C8.17213 19.5 7.50013 18.828 7.50013 18V15H3.00013C2.17213 15 1.50013 15.672 1.50013 16.5V25.5C1.50013 26.328 2.17213 27 3.00013 27H15.0001C15.8281 27 16.5001 26.328 16.5001 25.5V16.5C16.5001 15.672 15.8281 15 15.0001 15Z" fill="#82DBE8"/>
<path d="M33.0001 15H28.5001V18C28.5001 18.828 27.8281 19.5 27.0001 19.5C26.1721 19.5 25.5001 18.828 25.5001 18V15H21.0001C20.1721 15 19.5001 15.672 19.5001 16.5V25.5C19.5001 26.328 20.1721 27 21.0001 27H33.0001C33.8281 27 34.5001 26.328 34.5001 25.5V16.5C34.5001 15.672 33.8281 15 33.0001 15Z" fill="#82DBE8"/>
</svg>
