<svg width="136" height="128" viewBox="0 0 136 128" fill="none" xmlns="http://www.w3.org/2000/svg">
<path d="M63.4897 123.388C64.5891 123.388 65.4851 124.276 65.4851 125.383C65.4851 126.482 64.5891 127.371 63.4897 127.371H9.72852C7.04809 127.371 4.61577 126.279 2.85388 124.517C1.09172 122.755 0 120.323 0 117.642V105.701C0 103.02 1.09172 100.588 2.85388 98.8261C4.61577 97.0639 7.04783 95.9722 9.72852 95.9722H10.3158V79.0909C10.3158 76.9749 10.9557 75.0173 12.04 73.3757C13.1694 71.6741 14.7733 70.3112 16.6555 69.4676C17.4011 69.1289 18.0636 68.7977 18.4328 68.4213C18.764 68.0826 18.8166 67.6531 18.8243 67.1938V62.827H18.237C16.4148 62.827 14.7507 62.0813 13.5535 60.8767C12.3486 59.6796 11.6033 58.0157 11.6033 56.1932C11.6033 54.3636 12.3486 52.7069 13.5535 51.5023C14.7507 50.3051 16.4146 49.5598 18.237 49.5598H35.7733C37.5955 49.5598 39.2594 50.3054 40.4568 51.5023C41.6617 52.7069 42.407 54.3636 42.407 56.1932C42.407 58.0154 41.6617 59.6796 40.4568 60.8767C39.2596 62.0813 37.5955 62.827 35.7733 62.827H35.186V67.1938C35.186 67.6608 35.2386 68.0749 35.5775 68.4213C35.9465 68.7977 36.6015 69.1289 37.3543 69.4676C39.2294 70.3112 40.8406 71.6741 41.9626 73.3757C43.0544 75.0173 43.6945 76.9749 43.6945 79.0909V95.9722H51.3148V79.0909C51.3148 76.9749 51.9547 75.0173 53.0389 73.3757C54.1684 71.6741 55.7722 70.3112 57.6544 69.4676C58.4 69.1289 59.0548 68.7977 59.424 68.4213C59.763 68.0826 59.8156 67.6531 59.823 67.1938V62.827H59.2357C57.4061 62.827 55.7496 62.0813 54.5522 60.8767C53.3476 59.6796 52.602 58.0157 52.602 56.1932C52.602 54.3636 53.3476 52.7069 54.5522 51.5023C55.7494 50.3051 57.4061 49.5598 59.2357 49.5598H76.772C78.5942 49.5598 80.2509 50.3054 81.4558 51.5023C82.6529 52.7069 83.3983 54.3636 83.3983 56.1932C83.3983 58.0154 82.6527 59.6796 81.4558 60.8767C80.2509 62.0813 78.5942 62.827 76.772 62.827H76.1847V67.1938C76.1847 67.6608 76.2373 68.0749 76.5765 68.4213C76.9454 68.7977 77.6002 69.1289 78.3533 69.4676C80.2286 70.3112 81.8396 71.6741 82.9616 73.3757C84.0533 75.0173 84.6935 76.9749 84.6935 79.0909V95.9722H92.3137V79.0909C92.3137 76.9749 92.9462 75.0173 94.0379 73.3757C95.1599 71.6741 96.7709 70.3112 98.646 69.4676C99.399 69.1289 100.054 68.7977 100.423 68.4213C100.754 68.0826 100.815 67.6531 100.822 67.1938V62.827H100.235C98.4048 62.827 96.7483 62.0813 95.5437 60.8767C94.3465 59.6796 93.6009 58.0157 93.6009 56.1932C93.6009 54.3636 94.3465 52.7069 95.5437 51.5023C96.7483 50.3051 98.4048 49.5598 100.235 49.5598H117.764C119.593 49.5598 121.25 50.3054 122.454 51.5023C123.652 52.7069 124.397 54.3636 124.397 56.1932C124.397 58.0154 123.651 59.6796 122.454 60.8767C121.25 62.0813 119.593 62.827 117.764 62.827H117.184V67.1938C117.184 67.6608 117.236 68.0749 117.575 68.4213C117.944 68.7977 118.599 69.1289 119.352 69.4676C121.227 70.3112 122.838 71.6741 123.96 73.3757C125.052 75.0173 125.692 76.9749 125.692 79.0909V95.9722H126.272C128.953 95.9722 131.384 97.0639 133.147 98.8261C134.908 100.588 136 103.02 136 105.701V117.642C136 120.323 134.908 122.755 133.146 124.517C131.384 126.279 128.952 127.371 126.272 127.371H72.51C71.4106 127.371 70.5224 126.482 70.5224 125.383C70.5224 124.276 71.4109 123.388 72.51 123.388H126.272C127.853 123.388 129.291 122.74 130.33 121.701C131.369 120.654 132.017 119.224 132.017 117.642V105.701C132.017 104.119 131.369 102.689 130.33 101.642C129.291 100.603 127.853 99.9555 126.272 99.9555C87.4265 99.9555 48.5735 99.9555 9.72852 99.9555C8.15469 99.9555 6.71659 100.603 5.67747 101.642C4.63091 102.689 3.98331 104.119 3.98331 105.701V117.642C3.98331 119.224 4.63091 120.654 5.67747 121.701C6.71659 122.74 8.15469 123.388 9.72852 123.388H63.4897ZM96.8835 104.323H121.121C122.378 104.323 123.523 104.842 124.344 105.663C125.172 106.491 125.692 107.636 125.692 108.893V114.45C125.692 115.707 125.172 116.852 124.344 117.68C123.523 118.501 122.379 119.02 121.121 119.02H96.8835C95.6184 119.02 94.4815 118.501 93.6533 117.68C92.8251 116.852 92.3132 115.707 92.3132 114.45V108.893C92.3132 107.636 92.8251 106.491 93.6533 105.663C94.4815 104.842 95.6186 104.323 96.8835 104.323ZM121.121 108.313H96.8835C96.7178 108.313 96.5749 108.374 96.4692 108.486C96.3637 108.592 96.2962 108.735 96.2962 108.893V114.45C96.2962 114.608 96.364 114.751 96.4692 114.856C96.5746 114.969 96.7178 115.029 96.8835 115.029H121.121C121.28 115.029 121.423 114.969 121.528 114.856C121.641 114.751 121.701 114.608 121.701 114.45V108.893C121.701 108.735 121.641 108.592 121.528 108.486C121.423 108.373 121.28 108.313 121.121 108.313ZM55.8848 104.323H80.1229C81.3803 104.323 82.5249 104.842 83.3531 105.663C84.1811 106.491 84.6932 107.636 84.6932 108.893V114.45C84.6932 115.707 84.1811 116.852 83.3531 117.68C82.5249 118.501 81.3803 119.02 80.1229 119.02H55.8848C54.6274 119.02 53.4831 118.501 52.6546 117.68C51.8264 116.852 51.3145 115.707 51.3145 114.45V108.893C51.3145 107.636 51.8264 106.491 52.6546 105.663C53.4831 104.842 54.6274 104.323 55.8848 104.323ZM80.1229 108.313H55.8848C55.7268 108.313 55.5762 108.374 55.4707 108.486C55.3653 108.592 55.2975 108.735 55.2975 108.893V114.45C55.2975 114.608 55.3653 114.751 55.4707 114.856C55.5762 114.969 55.7268 115.029 55.8848 115.029H80.1229C80.2812 115.029 80.4241 114.969 80.5293 114.856C80.6424 114.751 80.7102 114.608 80.7102 114.45V108.893C80.7102 108.735 80.6424 108.592 80.5293 108.486C80.4238 108.373 80.2809 108.313 80.1229 108.313ZM14.8862 104.323H39.1239C40.3814 104.323 41.526 104.842 42.3542 105.663C43.1824 106.491 43.6943 107.636 43.6943 108.893V114.45C43.6943 115.707 43.1824 116.852 42.3542 117.68C41.526 118.501 40.3814 119.02 39.1239 119.02H14.8862C13.629 119.02 12.4844 118.501 11.6562 117.68C10.8279 116.852 10.3158 115.707 10.3158 114.45V108.893C10.3158 107.636 10.8279 106.491 11.6562 105.663C12.4841 104.842 13.6287 104.323 14.8862 104.323ZM39.1239 108.313H14.8862C14.7281 108.313 14.5775 108.374 14.472 108.486C14.3666 108.592 14.2989 108.735 14.2989 108.893V114.45C14.2989 114.608 14.3666 114.751 14.472 114.856C14.5772 114.969 14.7278 115.029 14.8862 115.029H39.1239C39.282 115.029 39.4251 114.969 39.538 114.856C39.6435 114.751 39.7112 114.608 39.7112 114.45V108.893C39.7112 108.735 39.6435 108.592 39.538 108.486C39.4251 108.373 39.282 108.313 39.1239 108.313ZM68 7.47681C69.7542 7.47681 71.3357 8.1847 72.4877 9.33672C73.6323 10.481 74.3399 12.07 74.3399 13.8168C74.3399 15.5709 73.6323 17.1522 72.4877 18.3042C71.3357 19.4488 69.7545 20.1564 68 20.1564C66.2533 20.1564 64.6643 19.4488 63.52 18.3042C62.368 17.1519 61.6601 15.5709 61.6601 13.8168C61.6601 12.07 62.368 10.481 63.52 9.33672C64.6643 8.1847 66.2533 7.47681 68 7.47681ZM69.6716 12.1526C69.2426 11.7234 68.6553 11.4599 68 11.4599C67.3524 11.4599 66.7651 11.7234 66.3359 12.1526C65.9066 12.5816 65.6431 13.1692 65.6431 13.8168C65.6431 14.4718 65.9066 15.0591 66.3359 15.4883C66.7651 15.9099 67.3524 16.1734 68 16.1734C68.6553 16.1734 69.2426 15.9099 69.6716 15.4883C70.0934 15.0591 70.3569 14.4718 70.3569 13.8168C70.3569 13.1692 70.0934 12.5816 69.6716 12.1526ZM69.9954 37.5272V40.4863C69.9954 41.5857 69.0994 42.4742 68 42.4742C66.9006 42.4742 66.0123 41.5855 66.0123 40.4863V37.5272H65.3196C62.8046 37.5272 60.749 35.4793 60.749 32.9569V27.6332H54.906C52.9332 27.6332 51.1488 26.835 49.8536 25.5398C48.9199 24.6062 48.2423 23.4167 47.9336 22.0838H31.6697C30.5702 22.0838 29.682 21.1953 29.682 20.0961C29.682 18.9967 30.5705 18.1008 31.6697 18.1008H47.7527V9.53966H4.57034C4.25425 9.53966 3.98305 9.80316 3.98305 10.1198V17.5137C3.98305 17.8301 4.25425 18.101 4.57034 18.101H22.649C23.7485 18.101 24.6367 18.997 24.6367 20.0964C24.6367 21.1958 23.7482 22.0841 22.649 22.0841H4.57034C2.05567 22.0841 0 20.0361 0 17.5137V10.1198C0 7.60484 2.05567 5.54891 4.57034 5.54891H47.9336C48.2423 4.22397 48.9199 3.03424 49.8536 2.10056C51.1488 0.805641 52.9332 0 54.906 0H81.1017C83.0668 0 84.859 0.805641 86.1541 2.10056C87.0878 3.0345 87.7652 4.22397 88.0664 5.54891H104.33C105.43 5.54891 106.326 6.44486 106.326 7.54455C106.326 8.64397 105.43 9.53992 104.33 9.53992H88.247V18.1013H131.429C131.753 18.1013 132.017 17.8301 132.017 17.514V10.1198C132.017 9.80342 131.753 9.53966 131.429 9.53966H113.358C112.259 9.53966 111.363 8.6437 111.363 7.54428C111.363 6.44459 112.259 5.54864 113.358 5.54864H131.429C133.952 5.54864 136 7.60458 136 10.1195V17.5135C136 20.0358 133.952 22.0838 131.429 22.0838H88.0661C87.7649 23.4167 87.0873 24.6062 86.1539 25.5398C84.8587 26.835 83.0668 27.6332 81.1014 27.6332H75.2508V32.9569C75.2508 35.4793 73.2028 37.5272 70.6804 37.5272H69.9954ZM71.268 32.9569V27.6332H64.7323V32.9569C64.7323 33.2807 65.0035 33.5442 65.3196 33.5442H70.6807C71.0042 33.5442 71.268 33.2807 71.268 32.9569ZM121.701 90.5208H115.075C113.976 90.5208 113.087 89.6245 113.087 88.5254C113.087 86.2662 111.258 84.4366 108.999 84.4366C107.87 84.4366 106.853 84.8959 106.107 85.6338C105.37 86.3794 104.91 87.3957 104.91 88.5254C104.91 89.6245 104.022 90.5208 102.923 90.5208H96.2965V95.9722H121.701L121.701 90.5208ZM96.2962 86.53H101.175C101.536 85.1071 102.282 83.827 103.291 82.8179C104.752 81.3572 106.77 80.4538 108.999 80.4538C112.771 80.4538 115.933 83.044 116.822 86.53H121.701V79.0909C121.701 77.7806 121.309 76.576 120.647 75.5669C119.932 74.4903 118.915 73.6318 117.718 73.0897C116.588 72.5855 115.564 72.0508 114.728 71.1923C113.644 70.078 113.193 68.7377 113.193 67.1938V62.827H104.805V67.1264C104.805 68.7002 104.391 70.048 103.269 71.1926C102.433 72.0511 101.409 72.5855 100.28 73.0899C99.0821 73.6321 98.0658 74.4906 97.3505 75.5671C96.688 76.5765 96.2965 77.7811 96.2965 79.0912L96.2962 86.53ZM80.7102 90.5208H74.0764C72.977 90.5208 72.0888 89.6245 72.0888 88.5254C72.0888 86.2662 70.2589 84.4366 68 84.4366C66.8706 84.4366 65.854 84.8959 65.1087 85.6338C64.3708 86.3794 63.9189 87.3957 63.9189 88.5254C63.9189 89.6245 63.023 90.5208 61.9236 90.5208H55.2975V95.9722H80.7099L80.7102 90.5208ZM55.2975 86.53H60.1765C60.5455 85.1071 61.2834 83.827 62.2925 82.8179C63.7532 81.3572 65.7711 80.4538 67.9997 80.4538C71.7719 80.4538 74.9344 83.044 75.8229 86.53H80.7099V79.0909C80.7099 77.7806 80.3184 76.576 79.6479 75.5669C78.9403 74.4903 77.9161 73.6318 76.7191 73.0897C75.5897 72.5855 74.5657 72.0508 73.7298 71.1923C72.6458 70.078 72.2014 68.7377 72.2014 67.1938V62.827H63.8058V67.1638C63.8058 68.7074 63.3691 70.0703 62.2771 71.1923C61.434 72.0508 60.4098 72.5852 59.288 73.0897C58.0909 73.6318 57.0669 74.4903 56.359 75.5669C55.6888 76.5762 55.2973 77.7808 55.2973 79.0909L55.2975 86.53ZM39.7112 90.5208H33.0852C31.9783 90.5208 31.0898 89.6245 31.0898 88.5254C31.0898 86.2662 29.2599 84.4366 27.001 84.4366C24.7496 84.4366 22.9202 86.2662 22.9202 88.5254C22.9202 89.6245 22.024 90.5208 20.9249 90.5208H14.2989V95.9722H39.7112V90.5208ZM14.2989 86.53H19.1856C20.0664 83.044 23.2366 80.4538 27.001 80.4538C30.7735 80.4538 33.936 83.044 34.8245 86.53H39.7112V79.0909C39.7112 77.7806 39.3197 76.576 38.6495 75.5669C37.9416 74.4903 36.9176 73.6318 35.7205 73.0897C34.591 72.5855 33.567 72.0508 32.7314 71.1923C31.6471 70.078 31.203 68.7377 31.203 67.1938V62.827H22.8074V67.1938C22.8225 68.9709 22.2275 70.2132 21.279 71.1923C20.4356 72.0508 19.4116 72.5852 18.2896 73.0897C17.0924 73.6318 16.0685 74.4903 15.3606 75.5669C14.6904 76.5762 14.2989 77.7808 14.2989 79.0909V86.53ZM81.1017 3.98278H54.906C54.0326 3.98278 53.2419 4.34403 52.6697 4.91645C52.0976 5.48888 51.736 6.27938 51.736 7.15275V20.4879C51.736 21.3539 52.0976 22.1441 52.6697 22.724C53.2419 23.2961 54.0326 23.6502 54.906 23.6502H81.1017C81.9676 23.6502 82.7579 23.2961 83.3303 22.724C83.9104 22.1441 84.2642 21.3539 84.2642 20.4879V7.15275C84.2642 6.27938 83.9104 5.48861 83.3303 4.91645C82.7581 4.3443 81.9676 3.98278 81.1017 3.98278ZM117.763 58.8436C118.494 58.8436 119.156 58.5424 119.638 58.0606C120.12 57.5787 120.414 56.916 120.414 56.1932C120.414 55.463 120.12 54.8003 119.638 54.3262C119.156 53.8443 118.494 53.5431 117.763 53.5431H100.234C99.5039 53.5431 98.8415 53.8443 98.3593 54.3262C97.8849 54.8003 97.5837 55.463 97.5837 56.1932C97.5837 56.9163 97.8849 57.5787 98.3593 58.0606C98.8412 58.5424 99.5039 58.8436 100.234 58.8436H117.763ZM76.772 58.8436C77.495 58.8436 78.1575 58.5424 78.6393 58.0606C79.1209 57.5787 79.4152 56.916 79.4152 56.1932C79.4152 55.463 79.1212 54.8003 78.6393 54.3262C78.1575 53.8443 77.4948 53.5431 76.772 53.5431H59.2357C58.5052 53.5431 57.8502 53.8443 57.3684 54.3262C56.8865 54.8003 56.5853 55.463 56.5853 56.1932C56.5853 56.9163 56.8865 57.5787 57.3684 58.0606C57.8502 58.5424 58.5052 58.8436 59.2357 58.8436H76.772ZM35.7733 58.8436C36.4961 58.8436 37.1588 58.5424 37.6407 58.0606C38.1225 57.5787 38.4163 56.916 38.4163 56.1932C38.4163 55.463 38.1228 54.8003 37.6407 54.3262C37.1588 53.8443 36.4961 53.5431 35.7733 53.5431H18.2367C17.514 53.5431 16.8512 53.8443 16.3694 54.3262C15.8876 54.8003 15.5863 55.463 15.5863 56.1932C15.5863 56.9163 15.8876 57.5787 16.3694 58.0606C16.8512 58.5424 17.514 58.8436 18.2367 58.8436H35.7733Z" fill="#82DBE8"/>
</svg>
