<svg width="36" height="26" viewBox="0 0 36 26" fill="none" xmlns="http://www.w3.org/2000/svg">
<path d="M30.8208 6.48855H25.9544V0H3.24443C1.45191 0 0.00012207 1.45179 0.00012207 3.24431V21.0879H3.24443C3.24443 23.7726 5.42619 25.9543 8.11086 25.9543C10.7955 25.9543 12.9773 23.7726 12.9773 21.0879H22.7101C22.7101 23.7726 24.8919 25.9543 27.5766 25.9543C30.2613 25.9543 32.443 23.7726 32.443 21.0879H35.6873V12.9772L30.8208 6.48855ZM8.11086 23.521C6.76446 23.521 5.67765 22.4342 5.67765 21.0878C5.67765 19.7414 6.76446 18.6546 8.11086 18.6546C9.45727 18.6546 10.5441 19.7414 10.5441 21.0878C10.5441 22.4342 9.45719 23.521 8.11086 23.521ZM27.5766 23.521C26.2302 23.521 25.1434 22.4342 25.1434 21.0878C25.1434 19.7414 26.2302 18.6546 27.5766 18.6546C28.923 18.6546 30.0098 19.7414 30.0098 21.0878C30.0098 22.4342 28.9229 23.521 27.5766 23.521ZM25.9544 12.9772V8.92184H30.0097L33.1972 12.9772H25.9544Z" fill="#82DBE8"/>
</svg>
