<svg width="39" height="50" viewBox="0 0 39 50" fill="none" xmlns="http://www.w3.org/2000/svg">
<g opacity="0.5">
<path d="M29.8431 45.2128H15.4385C14.9972 45.2128 14.6394 45.5699 14.6394 46.0106C14.6394 46.4514 14.9972 46.8085 15.4385 46.8085H29.8431C30.2844 46.8085 30.6422 46.4514 30.6422 46.0106C30.6422 45.5699 30.2844 45.2128 29.8431 45.2128Z" fill="#82DBE8"/>
<path d="M12.2421 45.2128H9.04577C8.60446 45.2128 8.24668 45.5699 8.24668 46.0106C8.24668 46.4514 8.60446 46.8085 9.04577 46.8085H12.2421C12.6834 46.8085 13.0412 46.4514 13.0412 46.0106C13.0412 45.5699 12.6834 45.2128 12.2421 45.2128Z" fill="#82DBE8"/>
<path d="M34.9186 23.944H33.0395C30.0167 23.944 27.5575 21.4886 27.5575 18.4704V9.40883C27.5575 8.96809 27.1997 8.61096 26.7584 8.61096H24.3853V4.93319C24.3853 2.21309 22.1688 0 19.4444 0C16.7201 0 14.5036 2.21309 14.5036 4.93319V8.61096H12.1305C11.6891 8.61096 11.3314 8.96809 11.3314 9.40883V18.4704C11.3314 21.4886 8.8721 23.944 5.84942 23.944H3.97029C1.78111 23.944 0 25.7224 0 27.9083V44.1522C0 44.593 0.357778 44.9501 0.799087 44.9501C1.2404 44.9501 1.59817 44.593 1.59817 44.1522V27.9083C1.59817 26.6023 2.66234 25.5398 3.97029 25.5398H5.05033V49.2021C5.05033 49.6429 5.40811 50 5.84942 50H33.0395C33.4808 50 33.8386 49.6429 33.8386 49.2021V25.5398H34.9186C36.2265 25.5398 37.2907 26.6022 37.2907 27.9083V44.1522C37.2907 44.593 37.6485 44.9501 38.0898 44.9501C38.5311 44.9501 38.8889 44.593 38.8889 44.1522V27.9083C38.8889 25.7224 37.1079 23.944 34.9186 23.944ZM6.64851 48.4043V25.495C10.1776 25.0973 12.9295 22.0986 12.9295 18.4704V10.2067H14.5036V10.4727C14.5036 10.9134 14.8614 11.2705 15.3027 11.2705C15.744 11.2705 16.1018 10.9134 16.1018 10.4727V10.2067H22.787V10.4727C22.787 10.9134 23.1448 11.2705 23.5861 11.2705C24.0274 11.2705 24.3851 10.9134 24.3851 10.4727V10.2067H25.9592V18.4704C25.9592 22.0986 28.7112 25.0973 32.2403 25.495V48.4043H6.64851ZM16.1018 4.93319C16.1018 3.09287 17.6013 1.59574 19.4444 1.59574C21.2876 1.59574 22.7871 3.09287 22.7871 4.93319V8.61096H16.1019V4.93319H16.1018Z" fill="#82DBE8"/>
</g>
</svg>
