<svg width="57" height="80" viewBox="0 0 57 80" fill="none" xmlns="http://www.w3.org/2000/svg">
<path d="M45.7303 22.3087C39.987 12.946 33.599 4.84284 30.3022 0.845818C29.861 0.31053 29.199 -0.000208584 28.5002 1.05048e-07C27.8012 1.05048e-07 27.1394 0.310738 26.698 0.846026C23.4014 4.84431 17.0134 12.9502 11.2701 22.3137C3.86872 34.3807 0.115845 44.3575 0.115845 51.9664C0.115845 67.4242 12.8489 80 28.5 80C44.1511 80 56.8841 67.4242 56.8841 51.9664C56.8843 44.3525 53.1319 34.3743 45.7303 22.3087ZM32.3951 69.6747C30.7376 70.0933 29.0172 70.3053 27.2806 70.3053C16.6764 70.3053 8.04926 62.39 8.04926 52.6607C8.04926 50.3119 8.67681 47.5676 9.91396 44.5045C10.1229 43.9869 10.7184 43.6916 11.3054 43.8168C11.8919 43.9416 12.2858 44.4466 12.2254 44.9959C12.1531 45.6529 12.1163 46.2946 12.1163 46.9025C12.1163 57.4904 20.7544 66.3567 32.2093 67.5254C32.7794 67.5836 33.2242 68.0048 33.2696 68.5296C33.3153 69.0545 32.948 69.5349 32.3951 69.6747Z" fill="#82DBE8"/>
</svg>
