<svg width="103" height="68" viewBox="0 0 103 68" fill="none" xmlns="http://www.w3.org/2000/svg">
<path d="M52.0285 60.4055C44.3709 58.4322 34.6235 52.6184 26.1541 42.4208C40.0039 52.8165 47.9192 57.9865 65.5777 59.1908C57.2072 57.4127 46.5525 52.7307 41.61 40.785C37.2961 30.3504 35.3435 21.7557 33.296 15.1727C32.6498 18.1428 30.9132 21.013 27.1991 23.1881C27.1991 23.1881 28.8585 21.7557 30.1044 18.501C31.8379 13.9736 31.0259 8.87239 27.9759 5.09817C24.9219 1.32227 20.0853 -0.566735 15.2663 0.14966C15.2631 0.151343 15.2557 0.151343 15.2485 0.153236C-1.25202 2.62108 -8.68686 33.3346 15.5034 56.3659C30.3411 70.0358 49.1337 69.2248 62.0688 66.0666C77.3764 67.7712 92.5712 62.3856 103 48.2224C99.3848 51.2771 81.4998 67.9996 52.0285 60.4055Z" fill="#82DBE8"/>
</svg>
