<svg width="44" height="52" viewBox="0 0 44 52" fill="none" xmlns="http://www.w3.org/2000/svg">
<path d="M31.9048 0C32.2796 0.157477 32.6929 0.260652 33.0181 0.488722C34.2085 1.30326 34.4731 3.13868 32.9519 4.19215C32.6653 4.38764 32.3677 4.5614 32.0922 4.77318C31.9544 4.88179 31.8166 5.0284 31.756 5.18588C31.1056 6.83668 30.4774 8.48747 29.838 10.1383C29.6727 10.5727 29.7554 10.9582 30.0144 11.3166C30.3947 11.8379 30.797 12.3429 31.1718 12.8642C31.4143 13.2009 31.6182 13.5702 31.8552 13.9069C32.2189 14.4227 32.511 14.5422 33.1007 14.2978C33.707 14.048 34.2857 13.7331 34.8644 13.4236C35.3328 13.1738 35.7737 12.8805 36.2422 12.6362C36.6059 12.4461 36.8209 12.1529 36.9807 11.7999C37.1901 11.3383 37.372 10.8713 37.7413 10.4967C38.4247 9.80159 39.2403 9.64954 40.1332 9.95363C41.0205 10.2577 41.4835 10.8985 41.6102 11.8216C41.8141 13.3041 40.5851 14.3141 39.3947 14.3739C39.1632 14.3847 38.9207 14.3304 38.6947 14.2761C38.1822 14.1566 37.6862 14.2164 37.2342 14.4553C36.0934 15.0689 34.9581 15.6988 33.8337 16.3342C33.3102 16.6274 33.1559 17.0618 33.2606 17.6646C33.47 18.8918 33.6133 20.1245 33.7841 21.3571C33.8172 21.5906 33.8503 21.8187 33.8833 22.0522C33.9219 22.302 34.0818 22.4432 34.3187 22.4812C34.6274 22.5301 34.936 22.5735 35.2502 22.5735C36.4461 22.5735 37.6366 22.5518 38.8325 22.5409C39.3175 22.5355 39.7253 22.3835 40.0781 22.0196C40.6843 21.406 41.4449 21.216 42.2936 21.4332C43.2305 21.6775 43.7982 22.2911 43.958 23.2143C44.1619 24.3601 43.6108 25.2398 42.5637 25.6959C41.7039 26.0706 40.9599 25.8425 40.2434 25.3592C40.2048 25.3321 40.1662 25.3049 40.1387 25.2723C39.7749 24.7239 39.2238 24.6316 38.6231 24.6479C37.3555 24.675 36.0879 24.6859 34.8203 24.713C34.666 24.7185 34.5116 24.7456 34.3573 24.7728C34.0652 24.8271 33.8889 25.0171 33.8337 25.2995C33.7235 25.8534 33.6409 26.4181 33.5251 26.972C33.3212 27.9603 33.1007 28.9486 32.8803 29.9315C32.7094 30.7135 32.9574 31.175 33.7235 31.452C34.4896 31.7289 35.2667 31.9678 36.0217 32.2611C36.4847 32.4403 36.8815 32.3914 37.3334 32.185C37.7137 32.0113 38.1546 31.8972 38.5735 31.881C39.8411 31.8429 40.8441 32.8638 40.8496 34.1291C40.8552 35.378 39.8576 36.3663 38.5955 36.3935C37.6862 36.4098 37.0138 36.0134 36.5618 35.2749C36.165 34.6232 35.6084 34.216 34.8919 33.9933C34.0652 33.7381 33.2385 33.472 32.4008 33.2548C31.9489 33.1408 31.541 33.2114 31.2324 33.6621C30.6041 34.5744 29.9262 35.4486 29.2759 36.3446C28.7909 37.0125 28.7909 37.3329 29.3365 37.952C30.0254 38.7285 30.7474 39.4724 31.4418 40.2435C31.6678 40.4987 31.9213 40.5693 32.2575 40.5693C33.0677 40.5748 33.7566 40.8843 34.2636 41.5196C35.1785 42.6546 34.7156 44.3542 33.3818 44.9624C31.9158 45.6303 30.1742 44.5823 30.1522 42.8881C30.1467 42.3505 30.0309 41.8563 29.6507 41.4382C28.9121 40.6345 28.1846 39.82 27.4516 39.0163C27.1485 38.685 26.7848 38.6145 26.3824 38.8045C25.6164 39.1683 24.8503 39.5322 24.0842 39.896C23.952 39.9612 23.8197 40.0155 23.6874 40.0752C23.1418 40.3141 22.8607 40.7268 22.8883 41.3133C22.9213 41.9649 22.9544 42.6111 23.0205 43.2627C23.1253 44.2782 23.263 45.2882 23.3733 46.3037C23.4394 46.9282 23.6543 47.4712 24.1338 47.9056C24.5196 48.2531 24.8558 48.6387 24.9936 49.1654C25.2636 50.2135 24.729 51.2832 23.737 51.7502C22.6347 52.2715 21.6317 51.9131 21.0365 51.2615C20.32 50.4687 20.2428 49.35 20.816 48.4486C20.8215 48.4432 20.8215 48.4323 20.827 48.4269C21.4057 47.8404 21.3837 47.1291 21.2955 46.3906C21.1136 44.9353 20.9483 43.4854 20.7719 42.0301C20.7554 41.8889 20.7223 41.7477 20.7058 41.6011C20.6452 41.0906 20.3586 40.8083 19.8405 40.7485C18.7052 40.6182 17.5974 40.3467 16.5007 40.0426C16.3078 39.9883 16.1038 39.972 15.9054 39.9666C15.4976 39.9612 15.1504 40.0969 14.941 40.4662C14.3953 41.4273 13.8277 42.3722 13.3096 43.3496C13.1663 43.6211 13.1332 43.9741 13.1222 44.2891C13.1002 44.7561 13.1553 45.2285 13.1608 45.7009C13.1663 46.7544 12.4223 47.6069 11.3586 47.7916C10.3721 47.9599 9.37452 47.482 8.91708 46.6078C8.44862 45.7172 8.60294 44.642 9.33594 43.9687C9.57844 43.746 9.87605 43.5614 10.1847 43.4419C10.7303 43.2247 11.1988 42.9424 11.4743 42.4102C12.0365 41.3241 12.6042 40.2435 13.1718 39.1629C13.3812 38.7665 13.2931 38.4353 12.9955 38.1257C12.3561 37.4578 11.7113 36.7845 11.072 36.1111C10.8956 35.9265 10.7248 35.7364 10.5429 35.5572C10.328 35.3509 10.0634 35.2694 9.78236 35.3835C8.82339 35.7636 7.85891 36.1274 6.93301 36.5727C6.65193 36.7084 6.48108 37.0777 6.27716 37.3492C6.0512 37.6533 5.87484 38.0008 5.6158 38.2723C4.69541 39.2335 2.9373 39.038 2.14367 37.8162C1.34453 36.5835 2.01692 34.8079 3.44986 34.4603C3.84667 34.3626 4.31513 34.3246 4.69541 34.444C5.75359 34.7698 6.685 34.4766 7.6109 34.0368C8.00772 33.8521 8.388 33.6349 8.79032 33.4666C9.121 33.3308 9.2202 33.0865 9.19816 32.7769C9.15958 32.2828 9.0714 31.7886 9.04935 31.2945C9.01077 30.4474 8.99975 29.6003 8.99975 28.7477C8.99975 28.1232 8.91708 27.9332 8.29982 27.8083C7.1259 27.5802 5.94648 27.3956 4.76155 27.2164C4.35371 27.1566 3.99548 27.3358 3.65929 27.5639C3.09162 27.9495 2.46884 28.1124 1.77993 27.9603C0.644596 27.7105 -0.0994316 26.7222 0.0107948 25.5004C0.0989758 24.5121 0.892606 23.6107 2.02794 23.4912C2.70032 23.4152 3.27349 23.5944 3.764 24.0451C3.92383 24.1917 4.09468 24.3383 4.23797 24.5013C4.59621 24.914 5.03712 25.1583 5.57722 25.2343C6.76216 25.4027 7.94709 25.5602 9.13202 25.7393C9.56742 25.8045 9.84298 25.5927 10.0414 25.2723C10.4162 24.675 10.7634 24.056 11.1271 23.4532C11.3696 23.0514 11.6397 22.6604 11.8711 22.2531C12.0475 21.9436 12.02 21.7916 11.7113 21.6124C10.9452 21.1725 10.1737 20.7272 9.36901 20.3688C9.121 20.2602 8.74072 20.3743 8.4376 20.4557C7.68255 20.6621 6.98261 20.5806 6.34881 20.119C4.90484 19.0602 5.11979 17.0238 6.72909 16.2147C7.86993 15.6391 9.41861 16.345 9.74929 17.3333C10.0028 18.0936 10.4823 18.6094 11.1877 18.957C11.8491 19.2882 12.5105 19.6086 13.1718 19.9399C13.4694 20.0865 13.745 20.0322 13.993 19.8421C14.9079 19.1416 15.5803 18.2456 16.0377 17.1976C16.2086 16.8012 16.1479 16.3993 15.8724 16.0681C15.2275 15.2916 14.5607 14.5422 13.9048 13.7711C13.6293 13.4453 13.2324 13.467 12.8742 13.4127C11.5735 13.2172 10.7524 12.2778 10.7854 10.98C10.8185 9.62239 12.3176 8.55263 13.6458 8.93818C14.704 9.2477 15.3819 10.0514 15.3543 11.1266C15.3323 11.9954 15.6133 12.6905 16.2251 13.2878C16.429 13.4833 16.5943 13.7114 16.7928 13.9177C17.14 14.287 17.3163 14.2815 17.5698 13.858C17.8399 13.4181 18.0604 12.9457 18.3359 12.5113C18.7107 11.914 19.0965 11.3166 19.5209 10.7519C19.9122 10.2251 20.1051 9.70927 19.9011 9.04678C19.5925 8.04219 19.35 7.01587 19.0744 6.00042C18.9532 5.55514 18.6831 5.21846 18.2973 4.95781C18.0548 4.7949 17.8234 4.61571 17.6194 4.40936C17.3329 4.11612 17.1014 3.77402 17.1234 3.33417C17.151 2.83459 17.0132 2.32414 17.2833 1.84628C17.7462 1.02632 18.7548 0.532164 19.7027 0.67878C20.6397 0.825397 21.4167 1.54762 21.5766 2.49248C21.6537 2.93776 21.6648 3.41562 21.4278 3.81746C20.9703 4.58855 21.0089 5.37594 21.2514 6.19048C21.4498 6.85297 21.6207 7.52632 21.8301 8.1888C22.0065 8.73726 22.1222 8.81328 22.7009 8.81328C23.263 8.81328 23.8307 8.7264 24.3763 8.79156C25.2361 8.89474 26.0903 9.07394 26.9336 9.26942C27.3965 9.37803 28.0248 9.10652 28.1791 8.67753C28.6862 7.26566 29.2208 5.87009 29.7388 4.46366C29.8766 4.08897 29.7058 3.73601 29.6121 3.37761C29.5294 3.05723 29.3861 2.74227 29.3696 2.41646C29.309 1.30326 30.1687 0.282373 31.3096 0.0651636C31.3592 0.0543031 31.4033 0.0271519 31.4529 0.0108611C31.6127 6.6271e-07 31.756 0 31.9048 0ZM18.7052 27.1023C17.0793 27.0155 15.47 28.411 15.4921 30.3116C15.5141 31.9896 16.9416 33.4014 18.6721 33.396C20.4633 33.3851 21.9734 31.957 21.8797 30.0727C21.8081 28.4816 20.32 27.0155 18.7052 27.1023ZM26.421 25.6307C27.4075 25.7339 28.372 24.6696 28.3665 23.7736C28.3555 22.5735 27.5178 21.759 26.3108 21.7373C25.1644 21.7155 24.3322 22.7799 24.3543 23.5835C24.3818 24.5718 24.9715 25.6525 26.421 25.6307ZM23.7095 17.67C23.715 16.8826 23.1032 16.2364 22.3482 16.2256C21.4829 16.2201 20.7829 16.8392 20.7719 17.6211C20.7664 18.4302 21.4223 19.0927 22.2324 19.1036C23.0536 19.109 23.7039 18.4791 23.7095 17.67Z" fill="#82DBE8"/>
</svg>
