<svg width="38" height="38" viewBox="0 0 38 38" fill="none" xmlns="http://www.w3.org/2000/svg">
<path d="M3.95831 16.6251C1.7765 16.6251 0 18.4016 0 20.5834V33.2501C0 35.4319 1.7765 37.2084 3.95831 37.2084H8.70831C9.59975 37.2084 10.4199 36.9076 11.0833 36.4072V16.6251H3.95831Z" fill="#82DBE8"/>
<path d="M38 22.5626C38 21.611 37.6232 20.7243 36.9693 20.0704C37.7087 19.2613 38.0855 18.1767 37.9826 17.0478C37.7973 15.0354 35.9844 13.4584 33.8533 13.4584H24.073C24.5575 11.9874 25.3333 9.29106 25.3333 7.12506C25.3333 3.69081 22.4153 0.791748 20.5833 0.791748C18.9383 0.791748 17.7634 1.718 17.7128 1.756C17.5259 1.90644 17.4167 2.13444 17.4167 2.37506V7.74412L12.8567 17.6226L12.6667 17.7191V34.6893C13.9555 35.2973 15.5863 35.6251 16.625 35.6251H31.1584C32.8827 35.6251 34.3916 34.4629 34.7463 32.859C34.9283 32.0341 34.8223 31.2028 34.4597 30.4808C35.6298 29.8918 36.4167 28.6869 36.4167 27.3126C36.4167 26.7521 36.2884 26.2153 36.0446 25.7292C37.2147 25.1402 38 23.9353 38 22.5626Z" fill="#82DBE8"/>
</svg>
