<svg width="76" height="75" viewBox="0 0 76 75" fill="none" xmlns="http://www.w3.org/2000/svg">
<path d="M7.91662 32.6875C3.553 32.6875 0 36.2873 0 40.7083V66.375C0 70.796 3.553 74.3958 7.91662 74.3958H17.4166C19.1995 74.3958 20.8397 73.7863 22.1666 72.7723V32.6875H7.91662Z" fill="#82DBE8"/>
<path d="M76 44.7188C76 42.7906 75.2464 40.9939 73.9385 39.6688C75.4174 38.0294 76.171 35.8316 75.9651 33.5442C75.5946 29.4663 71.9688 26.2708 67.7065 26.2708H48.146C49.115 23.2902 50.6666 17.8265 50.6666 13.4375C50.6666 6.47866 44.8305 0.604248 41.1666 0.604248C37.8765 0.604248 35.5268 2.48112 35.4255 2.55812C35.0519 2.86296 34.8334 3.32496 34.8334 3.81253V14.6919L25.7134 34.7088L25.3334 34.9044V69.2914C27.911 70.5234 31.1726 71.1875 33.25 71.1875H62.3169C65.7654 71.1875 68.7833 68.8326 69.4925 65.5826C69.8566 63.911 69.6445 62.2267 68.9194 60.7637C71.2595 59.5702 72.8334 57.1286 72.8334 54.3438C72.8334 53.208 72.5769 52.1204 72.0893 51.1355C74.4294 49.942 76 47.5004 76 44.7188Z" fill="#82DBE8"/>
</svg>
